# Blender v3.1.2 OBJ File: 'Raptor.blend'
# www.blender.org
mtllib BrazoIzq.mtl
o BrazoIzq_body.001_Plane.006
v 0.175452 -0.124683 0.036276
v 0.175452 -0.085202 0.054381
v 0.131342 -0.101364 -0.012618
v 0.175452 -0.053534 -0.061157
v 0.175452 -0.117082 -0.076045
v 0.225999 -0.075852 -0.003158
v 0.237618 -0.119254 -0.018533
v 0.234809 -0.172448 0.023029
v 0.175452 -0.168939 0.064131
v 0.174594 -0.247219 0.183084
v 0.197795 -0.015549 0.000269
v 0.175018 -0.015382 0.056400
v 0.175452 -0.217477 -0.032485
v 0.175452 -0.182652 -0.078165
v 0.071202 0.000000 0.000000
v 0.087655 -0.036416 -0.002937
v 0.093101 -0.004791 0.045157
v 0.152580 -0.272965 0.171904
v 0.180648 -0.293094 0.162991
v 0.181332 -0.300593 0.168413
v 0.149305 -0.302845 0.193431
v 0.175452 -0.241897 0.007123
v 0.202663 -0.267348 0.174170
v 0.107448 0.003540 -0.036739
v 0.132957 -0.141396 0.007943
v 0.083874 0.016824 0.023901
v 0.181847 -0.361664 0.166341
v 0.135064 -0.363916 0.191359
v 0.174424 -0.305486 0.225348
v 0.206450 -0.303234 0.200330
v 0.220764 -0.364306 0.198259
v 0.174939 -0.366557 0.223277
v 0.175205 -0.406186 0.217377
v 0.213584 -0.441482 0.192359
v 0.150224 -0.442177 0.185460
v 0.130489 -0.438142 0.147678
v 0.184825 -0.410302 0.141771
v 0.223487 -0.444536 0.157683
v 0.209951 -0.411899 0.152143
v 0.177323 -0.460273 0.166130
v 0.203083 -0.457145 0.135872
v 0.164651 -0.454733 0.131762
v 0.181432 -0.430031 0.078599
v 0.199156 -0.431749 0.079970
v 0.152719 -0.410372 0.138156
v 0.226195 -0.411458 0.104993
v 0.217319 -0.425128 0.103462
v 0.151624 -0.426041 0.088846
v 0.191364 -0.416167 0.083903
v 0.199053 -0.363085 0.041135
v 0.232460 -0.432381 0.106695
v 0.246585 -0.369933 0.051062
v 0.132603 -0.428137 0.093771
v 0.145970 -0.407424 0.093367
v 0.151801 -0.358658 0.049400
vt 0.444327 0.885005
vt 0.446424 0.908999
vt 0.403997 0.901913
vt 0.362591 0.918972
vt 0.361635 0.889430
vt 0.492920 0.934206
vt 0.474827 0.910547
vt 0.485178 0.897220
vt 0.484252 0.870205
vt 0.450182 0.850991
vt 0.471070 0.781925
vt 0.468947 0.930253
vt 0.454427 0.928461
vt 0.377494 0.839711
vt 0.360211 0.858848
vt 0.404514 0.956691
vt 0.405170 0.942040
vt 0.424909 0.960014
vt 0.524225 0.872889
vt 0.526758 0.895948
vt 0.457381 0.771351
vt 0.442308 0.761513
vt 0.443134 0.757184
vt 0.461989 0.753436
vt 0.391945 0.823293
vt 0.521534 0.853950
vt 0.487790 0.781978
vt 0.385014 0.956754
vt 0.411785 0.878001
vt 0.469604 0.960739
vt 0.444526 0.958596
vt 0.438861 0.947648
vt 0.410651 0.967456
vt 0.511028 0.916762
vt 0.438663 0.728395
vt 0.463430 0.723906
vt 0.479667 0.753518
vt 0.505008 0.780372
vt 0.494437 0.762001
vt 0.506227 0.776217
vt 0.806401 0.857183
vt 0.833766 0.856695
vt 0.830574 0.874488
vt 0.815802 0.888490
vt 0.487053 0.728676
vt 0.510240 0.738062
vt 0.526758 0.755593
vt 0.836981 0.893640
vt 0.858976 0.866388
vt 0.850100 0.908337
vt 0.257790 0.939308
vt 0.265385 0.955931
vt 0.222530 0.938280
vt 0.225298 0.974461
vt 0.228001 0.955524
vt 0.803423 0.899151
vt 0.825725 0.902712
vt 0.811793 0.913892
vt 0.266666 0.923781
vt 0.831298 0.918271
vt 0.819724 0.947541
vt 0.810705 0.945633
vt 0.206774 0.919206
vt 0.229568 0.917964
vt 0.205236 0.970406
vt 0.204426 0.964747
vt 0.208783 0.904048
vt 0.192276 0.935109
vt 0.192012 0.941179
vt 0.166017 0.931260
vt 0.238064 0.901601
vt 0.203361 0.953793
vt 0.788007 0.922291
vt 0.792665 0.929921
vt 0.758444 0.955349
vt 0.222740 0.894586
vt 0.213214 0.897341
vt 0.191524 0.876537
vt 0.210930 0.975337
vt 0.854082 0.936391
vt 0.193656 0.929139
vt 0.845455 0.941841
vt 0.858976 0.979828
vt 0.181471 0.984195
vt 0.807231 0.986204
vn -0.0481 0.2040 0.9778
vn 0.1000 -0.3394 0.9353
vn -0.9637 -0.2510 -0.0908
vn 0.1296 0.3233 -0.9374
vn -0.0963 0.1203 -0.9881
vn 0.9665 0.2225 0.1278
vn 0.9915 0.0690 -0.1101
vn 0.9891 -0.0173 0.1465
vn 0.0923 0.7598 0.6436
vn -0.0994 0.6957 0.7114
vn 0.6889 0.7148 -0.1201
vn 0.3989 0.5087 0.7630
vn -0.1105 -0.7691 -0.6296
vn -0.0891 -0.4930 -0.8655
vn -0.9612 0.1799 -0.2090
vn -0.8395 -0.5187 -0.1616
vn -0.5489 0.0877 0.8313
vn -0.9932 -0.0665 0.0957
vn 0.1329 -0.7526 -0.6450
vn 0.1475 -0.2620 -0.9537
vn -0.9891 0.1466 0.0169
vn -0.1114 -0.8758 -0.4696
vn 0.9660 0.1124 0.2329
vn -0.2780 0.5553 -0.7838
vn -0.9815 0.0183 0.1904
vn -0.4792 0.8235 0.3036
vn 0.0981 0.3106 -0.9455
vn -0.9870 0.1579 0.0312
vn -0.0966 0.2911 0.9518
vn 0.9490 0.2165 0.2292
vn 0.9696 0.1474 0.1955
vn -0.1024 -0.0576 0.9931
vn -0.1132 -0.2843 0.9520
vn 0.5492 -0.5724 0.6088
vn -0.5429 -0.6102 0.5769
vn -0.9337 -0.3579 -0.0111
vn 0.1922 0.5979 -0.7782
vn 0.8718 -0.4742 0.1228
vn 0.5577 0.5567 -0.6157
vn -0.0787 -0.9660 0.2463
vn 0.3354 -0.8927 -0.3009
vn -0.2872 -0.8599 -0.4220
vn -0.7280 -0.3065 -0.6132
vn 0.7554 -0.4466 -0.4795
vn -0.1780 0.7301 -0.6598
vn 0.0425 0.9053 0.4226
vn -0.7449 -0.1466 -0.6509
vn 0.6340 -0.4091 -0.6562
vn 0.0768 0.8983 0.4325
vn 0.1124 0.8377 -0.5344
vn 0.7842 -0.4928 -0.3769
vn 0.2725 0.6702 -0.6903
vn -0.8486 -0.3113 -0.4276
vn 0.1406 0.8442 0.5173
vn 0.1067 0.8146 -0.5701
g BrazoIzq_body.001_Plane.006_Raptor
usemtl Raptor
s 1
f 1/1/1 2/2/2 3/3/3
f 3/3/3 4/4/4 5/5/5
f 4/6/4 6/7/6 7/8/7
f 6/7/6 2/2/2 1/1/1
f 8/9/8 9/10/9 10/11/10
f 6/7/6 11/12/11 12/13/12
f 13/14/13 3/3/3 14/15/14
f 3/3/3 5/5/5 14/15/14
f 15/16/15 16/17/16 17/18/17
f 7/8/7 13/19/13 14/20/14
f 18/21/18 19/22/19 20/23/20 21/24/21
f 22/25/22 19/22/19 18/21/18
f 22/26/22 8/9/8 23/27/23
f 24/28/24 4/4/4 16/17/16
f 25/29/25 18/21/18 10/11/10
f 24/30/24 26/31/26 11/12/11
f 11/12/11 26/31/26 12/13/12
f 1/1/1 3/3/3 25/29/25
f 2/2/2 6/7/6 12/13/12
f 13/19/13 7/8/7 8/9/8
f 4/4/4 3/3/3 16/17/16
f 26/31/26 17/32/17 12/13/12
f 4/6/4 24/30/24 11/12/11
f 3/3/3 2/2/2 16/17/16
f 16/17/16 2/2/2 17/18/17
f 16/17/16 15/16/15 24/28/24
f 24/28/24 15/16/15 26/33/26
f 15/16/15 17/18/17 26/33/26
f 3/3/3 13/14/13 22/25/22 25/29/25
f 17/32/17 2/2/2 12/13/12
f 5/34/5 7/8/7 14/20/14
f 6/7/6 4/6/4 11/12/11
f 1/1/1 9/10/9 8/9/8
f 7/8/7 1/1/1 8/9/8
f 7/8/7 6/7/6 1/1/1
f 9/10/9 1/1/1 25/29/25
f 21/24/21 20/23/20 27/35/27 28/36/28
f 10/11/10 18/21/18 21/24/21 29/37/29
f 19/38/19 23/27/23 30/39/30 20/40/20
f 23/27/23 10/11/10 29/37/29 30/39/30
f 31/41/31 32/42/32 33/43/33 34/44/34
f 29/37/29 21/24/21 28/36/28 32/45/32
f 20/40/20 30/39/30 31/46/31 27/47/27
f 30/39/30 29/37/29 32/45/32 31/46/31
f 22/26/22 13/19/13 8/9/8
f 9/10/9 25/29/25 10/11/10
f 23/27/23 8/9/8 10/11/10
f 19/38/19 22/26/22 23/27/23
f 25/29/25 22/25/22 18/21/18
f 5/34/5 4/6/4 7/8/7
f 33/43/33 35/48/35 34/44/34
f 35/48/35 28/49/28 36/50/36
f 32/42/32 28/49/28 35/48/35 33/43/33
f 27/51/27 31/52/31 37/53/37
f 31/52/31 38/54/38 39/55/39
f 38/56/38 40/57/40 41/58/41
f 31/41/31 34/44/34 38/56/38
f 35/48/35 36/50/36 40/57/40
f 28/59/28 27/51/27 37/53/37
f 37/53/37 31/52/31 39/55/39
f 42/60/42 43/61/43 44/62/44
f 42/63/42 45/64/45 37/53/37
f 39/55/39 46/65/46 47/66/47
f 38/56/38 34/44/34 40/57/40
f 28/59/28 37/53/37 45/64/45
f 45/64/45 42/63/42 48/67/48
f 49/68/49 44/69/44 50/70/50
f 40/57/40 36/50/36 42/60/42
f 36/71/36 28/59/28 45/64/45
f 41/72/41 37/53/37 39/55/39
f 41/58/41 40/57/40 42/60/42
f 34/44/34 35/48/35 40/57/40
f 51/73/51 47/74/47 52/75/52
f 53/76/53 54/77/54 55/78/55
f 41/58/41 47/74/47 51/73/51
f 45/64/45 54/77/54 53/76/53
f 37/53/37 41/72/41 44/69/44
f 39/55/39 38/54/38 51/79/51
f 42/60/42 36/50/36 53/80/53
f 37/53/37 49/68/49 43/81/43
f 48/82/48 53/80/53 55/83/55
f 46/65/46 51/79/51 52/84/52
f 43/81/43 49/68/49 50/70/50
f 54/77/54 48/67/48 55/78/55
f 47/66/47 46/65/46 52/84/52
f 44/62/44 43/61/43 50/85/50
f 49/68/49 37/53/37 44/69/44
f 42/63/42 37/53/37 43/81/43
f 46/65/46 39/55/39 51/79/51
f 41/72/41 39/55/39 47/66/47
f 36/71/36 45/64/45 53/76/53
f 54/77/54 45/64/45 48/67/48
f 48/82/48 42/60/42 53/80/53
f 41/58/41 42/60/42 44/62/44
f 38/56/38 41/58/41 51/73/51
