# Blender v3.1.2 OBJ File: 'Raptor.blend'
# www.blender.org
mtllib Cola.mtl
o Cola_body.001_Plane.004
v 0.000000 0.000000 0.000000
v 0.114864 -0.012052 -0.066313
v 0.000000 0.093051 -0.085415
v 0.000000 0.093051 -0.085415
v 0.000000 0.046895 -0.283239
v 0.000000 0.046895 -0.283239
v 0.000000 -0.106848 -0.720815
v 0.000000 -0.108267 -0.728794
v 0.114864 -0.057996 -0.263721
v 0.000000 -0.117156 -0.047211
v 0.000000 -0.162627 -0.242956
v 0.000000 -0.162627 -0.242956
v 0.000000 -0.117156 -0.047211
v 0.000000 -0.237939 -0.693868
v 0.079437 -0.172665 -0.708468
v 0.000000 -0.241683 -1.166818
v 0.000000 -0.241683 -1.166818
v 0.000000 -0.318559 -1.151028
v 0.051862 -0.280132 -1.158903
v 0.000000 -0.237939 -0.693868
v 0.000000 -0.352562 -1.516691
v 0.000000 -0.352562 -1.516691
v 0.000000 -0.387527 -1.509936
v 0.027609 -0.370031 -1.513289
v 0.000000 -0.318559 -1.151028
v 0.000000 -0.387534 -1.509803
v 0.000000 -0.440706 -1.811433
v -0.114864 -0.012052 -0.066313
v -0.114864 -0.057996 -0.263721
v -0.079437 -0.172665 -0.708468
v -0.051862 -0.280132 -1.158903
v -0.027609 -0.370031 -1.513289
vt 0.927828 0.012663
vt 0.912973 0.089277
vt 0.857283 0.058812
vt 0.855765 0.057869
vt 0.831726 0.162304
vt 0.833984 0.162351
vt 0.852968 0.356164
vt 0.849522 0.356450
vt 0.908144 0.169917
vt 0.980823 0.080421
vt 0.980823 0.177724
vt 0.978687 0.177449
vt 0.979233 0.080928
vt 0.941763 0.359862
vt 0.897203 0.355806
vt 0.870632 0.552862
vt 0.867418 0.553150
vt 0.927978 0.552670
vt 0.899329 0.551579
vt 0.945030 0.360325
vt 0.889311 0.724998
vt 0.886444 0.725330
vt 0.921429 0.724856
vt 0.905410 0.724059
vt 0.931145 0.552875
vt 0.924292 0.725049
vt 0.946815 0.935819
vt 0.912973 0.089277
vt 0.908144 0.169917
vt 0.897203 0.355806
vt 0.899329 0.551579
vt 0.905410 0.724059
vn 0.0000 0.1788 0.9839
vn 0.9090 0.0894 0.4072
vn 0.4670 0.5486 0.2091
vn 0.0000 0.6533 0.7117
vn 0.7071 0.0000 0.7071
vn 0.3377 0.9386 0.0704
vn 0.5392 0.8022 -0.2563
vn 1.0000 0.0000 0.0000
vn 0.9991 -0.0038 -0.0430
vn 0.0000 0.7944 0.6074
vn 0.0000 0.0000 0.8864
vn 0.0000 -0.2440 0.9698
vn 0.0000 0.0000 1.0000
vn 0.0000 -0.7418 0.6706
vn 0.0000 0.0000 0.8158
vn 0.0000 -0.5783 0.8158
vn 0.0000 -0.7638 0.6454
vn 0.9970 -0.0209 -0.0741
vn 0.0000 -0.3703 0.9189
vn 0.3126 0.9496 0.0245
vn 0.2735 -0.8571 0.4365
vn 0.9975 -0.0119 -0.0692
vn 0.0001 -0.7638 0.6454
vn -0.0000 0.9510 0.3092
vn 0.5206 -0.8393 0.1569
vn 0.9967 -0.0215 -0.0781
vn -0.0000 -0.2305 -0.9731
vn 0.0000 -0.2306 -0.9731
vn -0.9090 0.0894 0.4072
vn -0.9991 -0.0038 -0.0430
vn -0.4754 -0.4438 0.4174
vn -0.9970 -0.0209 -0.0741
vn -0.9975 -0.0119 -0.0692
vn -0.9967 -0.0215 -0.0781
g Cola_body.001_Plane.004_Raptor
usemtl Raptor
s 1
f 1/1/1 2/2/2 3/3/3 4/4/4
f 5/5/5 6/6/6 7/7/7 8/8/8
f 2/2/2 9/9/9 6/6/6 3/3/3
f 3/3/10 6/6/6 5/5/5 4/4/11
f 10/10/12 11/11/13 12/12/14 13/13/15
f 13/13/16 12/12/14 9/9/9 2/2/2
f 9/9/9 12/12/14 14/14/17 15/15/18
f 10/10/19 13/13/16 2/2/2 1/1/1
f 8/8/8 7/7/7 16/16/20 17/17/5
f 15/15/18 14/14/17 18/18/21 19/19/22
f 12/12/14 11/11/13 20/20/13 14/14/23
f 6/6/6 9/9/9 15/15/18 7/7/7
f 17/17/5 16/16/20 21/21/24 22/22/13
f 19/19/22 18/18/21 23/23/25 24/24/26
f 14/14/23 20/20/13 25/25/5 18/18/21
f 7/7/7 15/15/18 19/19/22 16/16/20
f 23/23/25 26/26/8 27/27/27
f 21/21/24 24/24/26 27/27/28
f 18/18/21 25/25/5 26/26/8 23/23/25
f 16/16/20 19/19/22 24/24/26 21/21/24
f 24/24/26 23/23/25 27/27/28
f 22/22/13 21/21/24 27/27/27
f 1/1/1 4/4/4 3/3/10 28/28/29
f 28/28/29 3/3/10 6/6/6 29/29/30
f 13/13/31 28/28/29 29/29/30 12/12/14
f 29/29/30 30/30/32 14/14/17 12/12/14
f 10/10/19 1/1/1 28/28/29 13/13/31
f 30/30/32 31/31/33 18/18/21 14/14/17
f 6/6/6 7/7/7 30/30/32 29/29/30
f 31/31/33 32/32/34 23/23/25 18/18/21
f 7/7/7 16/16/20 31/31/33 30/30/32
f 21/21/24 27/27/28 32/32/34
f 16/16/20 21/21/24 32/32/34 31/31/33
f 32/32/34 27/27/28 23/23/25
