# Blender v3.1.2 OBJ File: ''
# www.blender.org
mtllib Cuerpo.mtl
o Cuerpo_body.001_Plane.003
v 0.223029 1.058336 -0.085780
v 0.193945 1.083881 -0.192022
v 0.173045 1.163307 0.106987
v 0.152523 1.160854 0.338795
v 0.196494 1.068564 0.229339
v 0.000000 1.237087 0.218506
v 0.000000 1.240855 0.508537
v 0.000000 1.260105 0.046922
v 0.000000 1.387222 0.617471
v 0.117352 1.296174 0.706750
v 0.119445 0.891627 0.456260
v 0.171839 0.932665 0.183411
v 0.167389 1.030943 0.426077
v 0.000000 1.092151 -0.479314
v 0.123269 0.983196 -0.440433
v 0.000000 0.985925 -0.509172
v 0.000000 1.262758 0.845466
v 0.000000 1.090196 0.755160
v 0.091708 1.088404 0.690912
v 0.000000 0.761227 -0.183261
v 0.135973 0.845549 -0.113670
v 0.116621 0.821674 0.188767
v 0.000000 0.972282 0.670496
v 0.155418 0.842823 -0.276536
v 0.000000 1.218857 -0.169830
v 0.000000 0.813175 0.497542
v 0.000000 0.777136 0.112057
v 0.000000 1.488777 0.679701
v 0.101901 1.425421 0.741827
v 0.000000 0.876101 -0.494265
v 0.127132 1.184587 0.614123
v 0.000000 1.464127 0.807958
v 0.000000 0.819111 -0.334881
v 0.000000 1.483533 0.754724
v -0.223029 1.058336 -0.085780
v -0.173045 1.163307 0.106987
v -0.193945 1.083881 -0.192022
v -0.152523 1.160854 0.338795
v -0.196494 1.068564 0.229339
v -0.117352 1.296174 0.706750
v -0.119445 0.891627 0.456260
v -0.167389 1.030943 0.426077
v -0.171839 0.932665 0.183411
v -0.123269 0.983196 -0.440433
v -0.091708 1.088404 0.690912
v -0.116621 0.821674 0.188767
v -0.135973 0.845549 -0.113670
v -0.155418 0.842823 -0.276536
v -0.101901 1.425421 0.741827
v -0.127132 1.184587 0.614123
vt 0.181484 0.236164
vt 0.222931 0.180523
vt 0.221309 0.324219
vt 0.206005 0.430992
vt 0.169497 0.371862
vt 0.299369 0.391546
vt 0.267873 0.530294
vt 0.317876 0.307978
vt 0.302290 0.616442
vt 0.217699 0.636979
vt 0.068037 0.459972
vt 0.111095 0.343378
vt 0.137453 0.458060
vt 0.279406 0.026763
vt 0.211155 0.065363
vt 0.224626 0.002072
vt 0.164515 0.709251
vt 0.097916 0.638948
vt 0.126497 0.592239
vt 0.032588 0.150400
vt 0.089085 0.209856
vt 0.055888 0.338319
vt 0.053915 0.581538
vt 0.135206 0.129024
vt 0.321602 0.191023
vt 0.000261 0.478203
vt 0.003896 0.297672
vt 0.321602 0.676817
vt 0.260680 0.678995
vt 0.163973 0.000261
vt 0.186676 0.570636
vt 0.228150 0.735564
vt 0.092985 0.067750
vt 0.297349 0.738833
vt 0.181484 0.236164
vt 0.221309 0.324219
vt 0.222931 0.180523
vt 0.206005 0.430992
vt 0.169497 0.371862
vt 0.217699 0.636979
vt 0.068037 0.459972
vt 0.137453 0.458060
vt 0.111095 0.343378
vt 0.211155 0.065363
vt 0.126497 0.592239
vt 0.055888 0.338319
vt 0.089085 0.209856
vt 0.135206 0.129024
vt 0.260680 0.678995
vt 0.186676 0.570636
vn 0.9924 0.1047 -0.0643
vn 0.8435 0.4547 -0.2860
vn 0.7420 0.6704 0.0073
vn 0.7811 0.6201 0.0733
vn 0.9918 0.0702 0.1072
vn 0.0000 0.9982 0.0598
vn -0.0000 0.9510 -0.3093
vn -0.0000 0.9980 -0.0635
vn 0.0000 0.5111 -0.8595
vn 0.9772 0.1902 0.0947
vn 0.7812 -0.5406 0.3124
vn 0.9385 -0.3372 0.0742
vn 0.9787 -0.0872 0.1858
vn 0.0000 0.6789 -0.7342
vn 0.7840 0.0625 -0.6176
vn 0.0000 0.0678 -0.9977
vn -0.0000 -0.1429 0.9897
vn 0.0000 -0.5129 0.8584
vn 0.7640 -0.3380 0.5497
vn -0.0000 -0.9948 -0.1019
vn 0.7583 -0.6508 0.0385
vn 0.6583 -0.7487 0.0780
vn 0.0000 -0.6883 0.7255
vn 0.7549 -0.6143 -0.2296
vn -0.0000 0.9630 -0.2695
vn 0.0000 -0.8909 0.4543
vn 0.0000 -0.9978 0.0663
vn 0.0000 0.8458 -0.5336
vn 0.8955 0.4318 0.1077
vn 0.0000 -0.5960 -0.8030
vn 0.9648 0.2627 0.0094
vn -0.0000 0.5996 0.8003
vn 0.0000 -0.9386 -0.3449
vn 0.0000 0.9780 0.2085
vn -0.9924 0.1047 -0.0643
vn -0.7420 0.6704 0.0073
vn -0.8435 0.4547 -0.2860
vn -0.7811 0.6201 0.0733
vn -0.9918 0.0702 0.1072
vn -0.9772 0.1902 0.0947
vn -0.7812 -0.5406 0.3124
vn -0.9787 -0.0872 0.1858
vn -0.9385 -0.3372 0.0742
vn -0.7840 0.0625 -0.6176
vn -0.7640 -0.3380 0.5497
vn -0.6583 -0.7487 0.0780
vn -0.7583 -0.6508 0.0385
vn -0.7549 -0.6143 -0.2296
vn -0.8955 0.4318 0.1077
vn -0.9648 0.2627 0.0094
usemtl Raptor
s 1
f 1/1/1 2/2/2 3/3/3
f 4/4/4 5/5/5 3/3/3
f 6/6/6 7/7/7 4/4/4
f 2/2/2 8/8/8 3/3/3
f 9/9/9 10/10/10 7/7/7
f 11/11/11 12/12/12 13/13/13
f 14/14/14 15/15/15 16/16/16
f 17/17/17 18/18/18 19/19/19
f 20/20/20 21/21/21 22/22/22
f 23/23/23 11/11/11 19/19/19
f 18/18/18 23/23/23 19/19/19
f 21/21/21 20/20/20 24/24/24
f 15/15/15 14/14/14 2/2/2
f 2/2/2 25/25/25 8/8/8
f 26/26/26 27/27/27 22/22/22
f 10/10/10 9/9/9 28/28/28 29/29/29
f 23/23/23 26/26/26 11/11/11
f 30/30/30 15/15/15 24/24/24
f 31/31/31 13/13/13 4/4/4
f 13/13/13 31/31/31 19/19/19
f 5/5/5 4/4/4 13/13/13
f 14/14/14 25/25/25 2/2/2
f 1/1/1 5/5/5 12/12/12
f 12/12/12 22/22/22 21/21/21
f 11/11/11 22/22/22 12/12/12
f 6/6/6 4/4/4 3/3/3
f 15/15/15 2/2/2 24/24/24
f 1/1/1 12/12/12 21/21/21
f 4/4/4 7/7/7 31/31/31
f 10/10/10 19/19/19 31/31/31
f 12/12/12 5/5/5 13/13/13
f 15/15/15 30/30/30 16/16/16
f 10/10/10 31/31/31 7/7/7
f 17/17/17 10/10/10 29/29/29 32/32/32
f 21/21/21 24/24/24 1/1/1
f 8/8/8 6/6/6 3/3/3
f 5/5/5 1/1/1 3/3/3
f 11/11/11 26/26/26 22/22/22
f 27/27/27 20/20/20 22/22/22
f 20/20/20 33/33/33 24/24/24
f 2/2/2 1/1/1 24/24/24
f 33/33/33 30/30/30 24/24/24
f 19/19/19 11/11/11 13/13/13
f 10/10/10 17/17/17 19/19/19
f 32/32/32 29/29/29 34/34/34
f 29/29/29 28/28/28 34/34/34
f 35/35/35 36/36/36 37/37/37
f 38/38/38 36/36/36 39/39/39
f 6/6/6 38/38/38 7/7/7
f 37/37/37 36/36/36 8/8/8
f 9/9/9 7/7/7 40/40/40
f 41/41/41 42/42/42 43/43/43
f 14/14/14 16/16/16 44/44/44
f 17/17/17 45/45/45 18/18/18
f 20/20/20 46/46/46 47/47/47
f 23/23/23 45/45/45 41/41/41
f 18/18/18 45/45/45 23/23/23
f 47/47/47 48/48/48 20/20/20
f 44/44/44 37/37/37 14/14/14
f 37/37/37 8/8/8 25/25/25
f 26/26/26 46/46/46 27/27/27
f 40/40/40 49/49/49 28/28/28 9/9/9
f 23/23/23 41/41/41 26/26/26
f 30/30/30 48/48/48 44/44/44
f 50/50/50 38/38/38 42/42/42
f 42/42/42 45/45/45 50/50/50
f 39/39/39 42/42/42 38/38/38
f 14/14/14 37/37/37 25/25/25
f 35/35/35 43/43/43 39/39/39
f 43/43/43 47/47/47 46/46/46
f 41/41/41 43/43/43 46/46/46
f 6/6/6 36/36/36 38/38/38
f 44/44/44 48/48/48 37/37/37
f 35/35/35 47/47/47 43/43/43
f 38/38/38 50/50/50 7/7/7
f 40/40/40 50/50/50 45/45/45
f 43/43/43 42/42/42 39/39/39
f 44/44/44 16/16/16 30/30/30
f 40/40/40 7/7/7 50/50/50
f 17/17/17 32/32/32 49/49/49 40/40/40
f 47/47/47 35/35/35 48/48/48
f 8/8/8 36/36/36 6/6/6
f 39/39/39 36/36/36 35/35/35
f 41/41/41 46/46/46 26/26/26
f 27/27/27 46/46/46 20/20/20
f 20/20/20 48/48/48 33/33/33
f 37/37/37 48/48/48 35/35/35
f 33/33/33 48/48/48 30/30/30
f 45/45/45 42/42/42 41/41/41
f 40/40/40 45/45/45 17/17/17
f 32/32/32 34/34/34 49/49/49
f 49/49/49 34/34/34 28/28/28
