# Blender v3.1.2 OBJ File: 'Raptor.blend'
# www.blender.org
mtllib Mandibula.mtl
o Mandibula_body.001_Plane.008
v 0.107085 -0.080983 0.073499
v 0.107085 -0.007214 0.101215
v 0.075279 -0.037003 0.211384
v 0.083544 -0.040019 -0.049995
v 0.097325 0.023418 -0.015201
v 0.000000 -0.040480 0.098941
v 0.000000 -0.006356 -0.068539
v 0.000000 -0.091125 -0.073227
v 0.000000 -0.123630 0.070583
v 0.000000 -0.070268 0.209109
v 0.000000 -0.091373 0.374053
v 0.030058 -0.089617 0.348367
v 0.040092 -0.091379 0.204977
v 0.000000 -0.115279 0.342079
v 0.000000 -0.094493 0.196257
v -0.107085 -0.080983 0.073499
v -0.075279 -0.037003 0.211384
v -0.107085 -0.007214 0.101215
v -0.097325 0.023418 -0.015201
v -0.083544 -0.040019 -0.049995
v -0.030058 -0.089617 0.348367
v -0.040092 -0.091379 0.204977
vt 0.078114 0.799327
vt 0.105780 0.806652
vt 0.098901 0.859063
vt 0.087660 0.756622
vt 0.108030 0.769335
vt 0.159366 0.811196
vt 0.126764 0.724181
vt 0.058875 0.721481
vt 0.023557 0.793387
vt 0.137457 0.876028
vt 0.090121 0.949889
vt 0.086271 0.929415
vt 0.064251 0.863618
vt 0.068118 0.939135
vt 0.042010 0.865108
vt 0.078114 0.799327
vt 0.098901 0.859063
vt 0.105780 0.806652
vt 0.108030 0.769335
vt 0.087660 0.756622
vt 0.086271 0.929415
vt 0.064251 0.863618
vn 0.8133 -0.5800 -0.0466
vn 0.6284 0.7304 0.2678
vn 0.6429 0.5667 0.5152
vn 0.6853 -0.2321 -0.6903
vn 0.5389 0.8054 -0.2467
vn 0.0000 0.9749 0.2228
vn 0.0000 0.6782 -0.7349
vn 0.0000 -0.6679 -0.7443
vn 0.0000 -0.9961 -0.0878
vn -0.0000 0.9789 0.2042
vn 0.0000 0.1077 0.9942
vn 0.6920 0.1822 0.6986
vn 0.5038 -0.8554 0.1207
vn 0.0000 -0.9634 0.2682
vn -0.0000 -0.9976 0.0687
vn -0.8133 -0.5800 -0.0466
vn -0.6429 0.5667 0.5152
vn -0.6284 0.7304 0.2678
vn -0.5389 0.8054 -0.2467
vn -0.6853 -0.2321 -0.6903
vn -0.6920 0.1822 0.6986
vn -0.5038 -0.8554 0.1207
g Mandibula_body.001_Plane.008_Raptor
usemtl Raptor
s 1
f 1/1/1 2/2/2 3/3/3
f 1/1/1 4/4/4 5/5/5
f 6/6/6 2/2/2 5/5/5 7/7/7
f 4/4/4 8/8/8 7/7/7
f 9/9/9 8/8/8 4/4/4
f 3/3/3 10/10/10 11/11/11 12/12/12
f 2/2/2 6/6/6 10/10/10 3/3/3
f 13/13/13 3/3/3 12/12/12
f 11/11/11 14/14/14 12/12/12
f 13/13/13 12/12/12 14/14/14
f 1/1/1 3/3/3 13/13/13
f 1/1/1 9/9/9 4/4/4
f 15/15/15 9/9/9 13/13/13
f 9/9/9 1/1/1 13/13/13
f 15/15/15 13/13/13 14/14/14
f 5/5/5 4/4/4 7/7/7
f 2/2/2 1/1/1 5/5/5
f 16/16/16 17/17/17 18/18/18
f 16/16/16 19/19/19 20/20/20
f 6/6/6 7/7/7 19/19/19 18/18/18
f 20/20/20 7/7/7 8/8/8
f 9/9/9 20/20/20 8/8/8
f 17/17/17 21/21/21 11/11/11 10/10/10
f 18/18/18 17/17/17 10/10/10 6/6/6
f 22/22/22 21/21/21 17/17/17
f 11/11/11 21/21/21 14/14/14
f 22/22/22 14/14/14 21/21/21
f 16/16/16 22/22/22 17/17/17
f 16/16/16 20/20/20 9/9/9
f 15/15/15 22/22/22 9/9/9
f 9/9/9 22/22/22 16/16/16
f 15/15/15 14/14/14 22/22/22
f 19/19/19 7/7/7 20/20/20
f 18/18/18 19/19/19 16/16/16
