# 3ds Max Wavefront OBJ Exporter v0.97b - (c)2007 guruware
# File Created: 09.09.2015 21:12:34

mtllib 3d-model.mtl

#
# object Group_001
#

v  -98.0666 379.5276 -10.1020
v  -150.9627 -0.0000 -2.5738
v  -150.9627 482.8833 -2.5737
v  -48.4926 432.9600 -17.1574
v  140.7684 482.8833 -44.0932
v  32.5803 432.9600 -28.6958
v  88.6347 379.5276 -36.6735
v  88.6347 -0.0000 -36.6735
v  140.7684 -0.0000 -44.0932
v  -98.0666 -0.0000 -10.1020
v  -150.9627 509.8506 -2.5737
v  4.4835 573.1484 -24.6970
v  140.7684 518.7101 -44.0932
v  170.2910 482.8833 9.3670
v  170.2910 -0.0000 9.3670
v  215.4264 -0.0000 2.9432
v  215.4264 345.1693 2.9433
v  248.1688 397.3883 -1.7167
v  433.2912 482.8833 -28.0635
v  338.5962 397.3883 -14.5864
v  380.3004 345.1693 -20.5218
v  433.2912 -0.0000 -28.0635
v  380.3004 -0.0000 -20.5218
v  -366.9760 346.7418 28.1695
v  -419.3396 -0.0000 35.6219
v  -419.3396 482.8833 35.6219
v  -325.0486 396.0000 22.2023
v  -173.1845 482.8833 0.5889
v  -256.4485 396.0000 12.4391
v  -217.1053 358.7585 6.8397
v  -217.1053 -0.0000 6.8397
v  -173.1845 -0.0000 0.5889
v  -366.9760 -0.0000 28.1695
v  -179.1201 0.0000 -41.1169
v  -179.1201 482.8833 -41.1168
v  -156.8983 482.8833 -44.2795
v  -156.8983 0.0000 -44.2795
v  -443.1091 320.8426 -3.5456
v  -443.1091 482.8833 -3.5456
v  -425.2752 482.8833 -6.0838
v  -425.2752 0.0000 -6.0838
v  -487.1535 320.8426 2.7228
v  -487.1535 0.0000 2.7228
v  207.3828 345.1693 -53.5738
v  170.3021 -0.0000 -48.2965
v  170.3021 482.8833 -48.2965
v  240.1252 397.3883 -58.2338
v  416.3374 482.8833 -83.3125
v  330.5526 397.3883 -71.1035
v  372.2569 345.1693 -77.0389
v  372.2569 -0.0000 -77.0389
v  416.3374 -0.0000 -83.3125
v  207.3828 -0.0000 -53.5739
v  410.4018 0.0000 -125.0182
v  410.4018 482.8833 -125.0182
v  434.2701 482.8833 -128.4151
v  434.2701 320.8426 -128.4152
v  468.5701 0.0000 -133.2968
v  468.5701 320.8426 -133.2968
v  96.6783 379.5276 19.8436
v  96.6783 -0.0000 19.8436
v  147.2438 -0.0000 12.6471
v  138.4347 482.8833 13.9008
v  147.2438 482.8833 12.6471
v  138.4347 507.9408 13.9008
v  40.6238 432.9600 27.8213
v  -6.1577 572.8959 34.4793
v  -40.4490 432.9600 39.3597
v  -90.0230 379.5276 46.4151
v  -137.9695 507.2928 53.2389
v  -90.0230 -0.0000 46.4151
v  -137.9695 482.8833 53.2389
v  -137.9695 -0.0000 53.2389
v  -133.3652 482.8833 85.5901
v  -133.3652 507.2928 85.5901
v  151.8481 482.8833 44.9982
v  151.8481 -0.0000 44.9982
v  174.8953 -0.0000 41.7181
v  174.8953 482.8833 41.7181
v  -424.5257 320.8426 127.0284
v  -468.5701 320.8426 133.2968
v  -468.5701 -0.0000 133.2968
v  -397.1888 -0.0000 123.1377
v  -397.1888 482.8833 123.1377
v  -424.5257 482.8833 127.0284
v  -401.7930 -0.0000 90.7865
v  -358.9324 -0.0000 84.6866
v  -358.9324 346.7418 84.6866
v  -401.7930 482.8833 90.7866
v  -317.0050 396.0000 78.7194
v  -163.1979 482.8833 56.8295
v  -248.4049 396.0000 68.9562
v  -209.0618 358.7585 63.3568
v  -163.1979 -0.0000 56.8294
v  -209.0618 -0.0000 63.3568
v  452.8535 320.8426 2.1588
v  437.8954 482.8833 4.2877
v  437.8954 -0.0000 4.2877
v  487.1535 -0.0000 -2.7228
v  487.1535 320.8426 -2.7228
v  452.8535 482.8833 2.1588
v  164.3665 0.0000 -90.0022
v  134.8328 0.0000 -85.7990
v  134.8328 482.8833 -85.7989
v  164.3665 482.8833 -90.0022
v  -188.3955 511.5872 -39.7967
v  -188.3955 530.0911 -39.7967
v  -20.8253 605.9055 -63.6455
v  -156.8983 509.8506 -44.2795
v  -1.4521 573.1484 -66.4027
v  1.4271 605.9055 -66.8125
v  134.8328 518.7101 -85.7989
v  170.9753 530.0911 -90.9428
v  170.9753 511.5872 -90.9428
v  434.2701 511.5872 -128.4151
v  -443.1091 511.5872 -3.5456
v  -158.5937 482.8833 89.1806
v  -158.5937 -0.0000 89.1806
v  -133.3652 -0.0000 85.5901
v  143.0390 507.9408 46.2520
v  143.0390 482.8833 46.2520
v  189.5587 530.0911 39.6312
v  20.0105 605.9055 63.7615
v  -1.5535 572.8959 66.8305
v  -2.2419 605.9055 66.9285
v  -169.8121 530.0911 90.7773
v  -169.8121 511.5872 90.7773
v  -424.5257 511.5872 127.0284
v  189.5587 511.5872 39.6312
v  452.8535 511.5872 2.1588
# 130 vertices

vn -0.1409 0.0000 -0.9900
vn 0.1409 -0.0000 0.9900
vn 0.9900 -0.0000 -0.1409
vn -0.0000 -1.0000 -0.0000
vn -0.9900 0.0000 0.1409
vn 0.7224 -0.6838 -0.1028
vn 0.9900 0.0000 -0.1409
vn -0.7706 -0.6279 0.1097
vn 0.4008 0.9144 -0.0570
vn 0.0000 1.0000 0.0000
vn -0.4023 -0.9137 0.0573
vn 0.8364 -0.5351 -0.1190
vn 0.7507 -0.6519 -0.1068
vn -0.6770 -0.7297 0.0963
vn 0.4376 -0.8970 -0.0623
vn -0.6795 -0.7273 0.0967
vn -0.4047 0.9126 0.0576
vn -0.3641 -0.9299 0.0518
vn 0.3702 -0.9275 -0.0527
# 19 vertex normals

vt -0.3969 0.6269 0.0000
vt -0.3516 0.1434 0.0000
vt -0.3516 0.7586 0.0000
vt -0.4394 0.6950 0.0000
vt -0.6014 0.7586 0.0000
vt -0.5088 0.6950 0.0000
vt -0.5568 0.6269 0.0000
vt -0.5568 0.1434 0.0000
vt -0.6014 0.1434 0.0000
vt -0.3969 0.1434 0.0000
vt -0.3516 0.7929 0.0000
vt -0.4847 0.8736 0.0000
vt -0.6014 0.8042 0.0000
vt 0.6609 0.7568 0.0000
vt 0.6609 0.1417 0.0000
vt 0.6995 0.1417 0.0000
vt 0.6995 0.5814 0.0000
vt 0.7276 0.6479 0.0000
vt 0.8861 0.7568 0.0000
vt 0.8050 0.6479 0.0000
vt 0.8407 0.5814 0.0000
vt 0.8861 0.1417 0.0000
vt 0.8407 0.1417 0.0000
vt -0.1667 0.5852 0.0000
vt -0.1218 0.1434 0.0000
vt -0.1218 0.7586 0.0000
vt -0.2026 0.6479 0.0000
vt -0.3326 0.7586 0.0000
vt -0.2613 0.6479 0.0000
vt -0.2950 0.6005 0.0000
vt -0.2950 0.1434 0.0000
vt -0.3326 0.1434 0.0000
vt -0.1667 0.1434 0.0000
vt -0.1066 0.5522 0.0000
vt -0.1066 0.7586 0.0000
vt -0.0688 0.5522 0.0000
vt -0.0688 0.1434 0.0000
vt -0.6584 0.5831 0.0000
vt -0.6267 0.1434 0.0000
vt -0.6267 0.7586 0.0000
vt -0.6865 0.6497 0.0000
vt -0.8374 0.7586 0.0000
vt -0.7639 0.6497 0.0000
vt -0.7996 0.5831 0.0000
vt -0.7996 0.1434 0.0000
vt -0.8374 0.1434 0.0000
vt -0.6584 0.1434 0.0000
vt -0.8578 0.7586 0.0000
vt -0.8578 0.5522 0.0000
vt -0.8872 0.1434 0.0000
vt -0.8872 0.5522 0.0000
vt 0.5978 0.6252 0.0000
vt 0.5978 0.1417 0.0000
vt 0.6411 0.1417 0.0000
vt 0.6336 0.7568 0.0000
vt 0.6411 0.7568 0.0000
vt 0.6336 0.7888 0.0000
vt 0.5499 0.6932 0.0000
vt 0.5098 0.8715 0.0000
vt 0.4804 0.6932 0.0000
vt 0.4380 0.6252 0.0000
vt 0.3969 0.7879 0.0000
vt 0.4380 0.1417 0.0000
vt 0.3969 0.7568 0.0000
vt 0.3969 0.1417 0.0000
vt 0.6479 0.2771 0.0000
vt 0.6479 0.2354 0.0000
vt 0.6686 0.2354 0.0000
vt 0.6686 0.2771 0.0000
vt 0.1476 0.5504 0.0000
vt 0.1099 0.5504 0.0000
vt 0.1099 0.1417 0.0000
vt 0.1710 0.1417 0.0000
vt 0.1710 0.7568 0.0000
vt 0.1476 0.7568 0.0000
vt 0.2077 0.1417 0.0000
vt 0.2077 0.5834 0.0000
vt 0.2436 0.6461 0.0000
vt 0.3753 0.7568 0.0000
vt 0.3024 0.6461 0.0000
vt 0.3361 0.5987 0.0000
vt 0.3753 0.1417 0.0000
vt 0.3361 0.1417 0.0000
vt 0.8989 0.5504 0.0000
vt 0.9282 0.1417 0.0000
vt 0.9282 0.5504 0.0000
vt 0.8989 0.7568 0.0000
vt -0.3247 0.7952 0.0000
vt -0.3247 0.8187 0.0000
vt -0.4681 0.9153 0.0000
vt -0.4872 0.9153 0.0000
vt -0.6324 0.8187 0.0000
vt -0.6324 0.7952 0.0000
vt -0.8578 0.7952 0.0000
vt -0.1066 0.7952 0.0000
vt 0.6734 0.8170 0.0000
vt 0.5283 0.9136 0.0000
vt 0.5092 0.9136 0.0000
vt 0.3657 0.8170 0.0000
vt 0.3657 0.7934 0.0000
vt 0.1476 0.7934 0.0000
vt 0.6734 0.7934 0.0000
vt 0.8989 0.7934 0.0000
vt 0.0000 0.0000 0.0000
# 104 texture coords

g Group_001
usemtl wire_006134006
s off
f 1/1/1 2/2/1 3/3/1 4/4/1 
f 4/4/1 3/3/1 5/5/1 6/6/1 
f 7/7/1 6/6/1 5/5/1 8/8/1 
f 8/8/1 5/5/1 9/9/1 
f 10/10/1 2/2/1 1/1/1 
f 3/3/1 11/11/1 12/12/1 5/5/1 
f 5/5/1 12/12/1 13/13/1 
f 14/14/2 15/15/2 16/16/2 17/17/2 
f 14/14/2 17/17/2 18/18/2 19/19/2 
f 19/19/2 18/18/2 20/20/2 21/21/2 
f 22/22/2 19/19/2 21/21/2 23/23/2 
f 24/24/1 25/25/1 26/26/1 27/27/1 
f 27/27/1 26/26/1 28/28/1 29/29/1 
f 30/30/1 29/29/1 28/28/1 31/31/1 
f 31/31/1 28/28/1 32/32/1 
f 33/33/1 25/25/1 24/24/1 
f 34/32/1 35/28/1 36/3/1 37/2/1 
f 38/34/1 39/35/1 40/26/1 41/25/1 
f 42/36/1 38/34/1 41/25/1 43/37/1 
f 44/38/1 45/39/1 46/40/1 47/41/1 
f 47/41/1 46/40/1 48/42/1 49/43/1 
f 50/44/1 49/43/1 48/42/1 51/45/1 
f 51/45/1 48/42/1 52/46/1 
f 53/47/1 45/39/1 44/38/1 
f 54/46/1 55/42/1 56/48/1 57/49/1 
f 58/50/1 54/46/1 57/49/1 59/51/1 
f 60/52/2 61/53/2 62/54/2 63/55/2 
f 63/55/2 62/54/2 64/56/2 
f 60/52/2 63/55/2 65/57/2 66/58/2 
f 66/58/2 65/57/2 67/59/2 68/60/2 
f 69/61/2 68/60/2 67/59/2 70/62/2 
f 71/63/2 69/61/2 70/62/2 72/64/2 
f 71/63/2 72/64/2 73/65/2 
f 74/66/3 72/67/3 70/68/3 75/69/3 
f 76/56/2 77/54/2 78/15/2 79/14/2 
f 80/70/2 81/71/2 82/72/2 83/73/2 
f 80/70/2 83/73/2 84/74/2 85/75/2 
f 86/73/2 87/76/2 88/77/2 89/74/2 
f 89/74/2 88/77/2 90/78/2 91/79/2 
f 91/79/2 90/78/2 92/80/2 93/81/2 
f 94/82/2 91/79/2 93/81/2 95/83/2 
f 96/84/2 97/19/2 98/22/2 99/85/2 
f 96/84/2 99/85/2 100/86/2 
f 97/19/2 96/84/2 101/87/2 
f 102/39/1 103/9/1 104/5/1 105/40/1 
f 106/88/1 107/89/1 108/90/1 109/11/1 
f 110/12/1 109/11/1 108/90/1 111/91/1 
f 112/13/1 110/12/1 111/91/1 113/92/1 
f 104/5/1 112/13/1 113/92/1 105/40/1 
f 105/40/1 113/92/1 114/93/1 55/42/1 
f 55/42/1 114/93/1 115/94/1 56/48/1 
f 35/28/1 106/88/1 109/11/1 36/3/1 
f 106/88/1 35/28/1 40/26/1 116/95/1 
f 116/95/1 40/26/1 39/35/1 
f 117/79/2 118/82/2 119/65/2 74/64/2 
f 120/57/2 121/55/2 76/56/2 122/96/2 
f 120/57/2 122/96/2 123/97/2 124/59/2 
f 124/59/2 123/97/2 125/98/2 75/62/2 
f 75/62/2 125/98/2 126/99/2 117/79/2 
f 117/79/2 126/99/2 127/100/2 84/74/2 
f 85/75/2 84/74/2 127/100/2 128/101/2 
f 75/62/2 117/79/2 74/64/2 
f 122/96/2 76/56/2 79/14/2 129/102/2 
f 129/102/2 79/14/2 97/19/2 130/103/2 
f 130/103/2 97/19/2 101/87/2 
f 9/104/4 103/104/4 102/104/4 45/104/4 
f 9/104/4 45/104/4 61/104/4 8/104/4 
f 15/104/4 61/104/4 45/104/4 16/104/4 
f 16/104/4 45/104/4 53/104/4 
f 62/104/4 61/104/4 15/104/4 78/104/4 
f 62/104/4 78/104/4 77/104/4 
f 19/104/5 22/104/5 98/104/5 97/104/5 
f 69/104/6 1/104/6 4/104/6 68/104/6 
f 17/104/7 16/104/7 53/104/7 44/104/7 
f 107/104/5 106/104/5 127/104/5 126/104/5 
f 18/104/4 47/104/4 49/104/4 20/104/4 
f 129/104/7 114/104/7 113/104/7 122/104/7 
f 50/104/8 21/104/8 20/104/8 49/104/8 
f 69/104/7 71/104/7 10/104/7 1/104/7 
f 26/104/4 40/104/4 35/104/4 28/104/4 
f 122/104/9 113/104/9 111/104/9 123/104/9 
f 78/104/7 15/104/7 14/104/7 79/104/7 
f 104/104/5 103/104/5 9/104/5 5/104/5 
f 35/104/5 34/104/5 32/104/5 28/104/5 
f 2/104/7 37/104/7 36/104/7 3/104/7 
f 83/104/7 86/104/7 89/104/7 84/104/7 
f 106/104/10 116/104/10 128/104/10 127/104/10 
f 87/104/7 33/104/7 24/104/7 88/104/7 
f 52/104/4 54/104/4 58/104/4 99/104/4 
f 22/104/4 52/104/4 99/104/4 98/104/4 
f 52/104/4 22/104/4 23/104/4 51/104/4 
f 34/104/4 37/104/4 2/104/4 32/104/4 
f 32/104/4 2/104/4 10/104/4 71/104/4 
f 31/104/4 32/104/4 71/104/4 73/104/4 
f 95/104/4 31/104/4 73/104/4 94/104/4 
f 94/104/4 73/104/4 119/104/4 118/104/4 
f 63/104/5 121/104/5 120/104/5 65/104/5 
f 63/104/4 64/104/4 76/104/4 121/104/4 
f 124/104/11 67/104/11 65/104/11 120/104/11 
f 25/104/7 41/104/7 40/104/7 26/104/7 
f 82/104/4 43/104/4 41/104/4 25/104/4 
f 82/104/4 25/104/4 33/104/4 86/104/4 
f 86/104/4 33/104/4 87/104/4 
f 82/104/4 86/104/4 83/104/4 
f 116/104/5 39/104/5 85/104/5 128/104/5 
f 111/104/10 108/104/10 125/104/10 123/104/10 
f 101/104/7 56/104/7 115/104/7 130/104/7 
f 79/104/4 14/104/4 19/104/4 97/104/4 
f 55/104/5 54/104/5 52/104/5 48/104/5 
f 17/104/12 44/104/12 47/104/12 18/104/12 
f 7/104/5 8/104/5 61/104/5 60/104/5 
f 27/104/4 29/104/4 92/104/4 90/104/4 
f 88/104/13 24/104/13 27/104/13 90/104/13 
f 29/104/14 30/104/14 93/104/14 92/104/14 
f 75/104/15 70/104/15 67/104/15 124/104/15 
f 4/104/4 6/104/4 66/104/4 68/104/4 
f 30/104/5 31/104/5 95/104/5 93/104/5 
f 6/104/16 7/104/16 60/104/16 66/104/16 
f 91/104/5 94/104/5 118/104/5 117/104/5 
f 119/104/7 73/104/7 72/104/7 74/104/7 
f 84/104/4 89/104/4 91/104/4 117/104/4 
f 130/104/10 115/104/10 114/104/10 129/104/10 
f 45/104/7 102/104/7 105/104/7 46/104/7 
f 62/104/5 77/104/5 76/104/5 64/104/5 
f 51/104/5 23/104/5 21/104/5 50/104/5 
f 108/104/17 107/104/17 126/104/17 125/104/17 
f 46/104/4 105/104/4 55/104/4 48/104/4 
f 104/104/5 5/104/5 13/104/5 112/104/5 
f 12/104/18 110/104/18 112/104/18 13/104/18 
f 11/104/19 109/104/19 110/104/19 12/104/19 
f 3/104/7 36/104/7 109/104/7 11/104/7 
f 39/104/5 38/104/5 80/104/5 85/104/5 
f 96/104/7 57/104/7 56/104/7 101/104/7 
f 42/104/5 43/104/5 82/104/5 81/104/5 
f 38/104/10 42/104/10 81/104/10 80/104/10 
f 99/104/7 58/104/7 59/104/7 100/104/7 
f 59/104/10 57/104/10 96/104/10 100/104/10 
# 119 polygons - 18 triangles

