# Blender 3.1.0
# www.blender.org
mtllib Entrada.mtl
o 3d-model
v -98.066597 379.527588 -10.101938
v -150.962708 0.000000 -2.573800
v -150.962708 482.883301 -2.573621
v -48.492599 432.959991 -17.157330
v 140.768402 482.883301 -44.093121
v 32.580299 432.959991 -28.695730
v 88.634697 379.527588 -36.673439
v 88.634697 0.000006 -36.673500
v 140.768402 0.000007 -44.093201
v -98.066597 0.000002 -10.102000
v -150.962708 509.850586 -2.573617
v 4.483500 573.148376 -24.696907
v 140.768402 518.710083 -44.093117
v 170.291000 482.883301 9.367078
v 170.291000 -0.000002 9.367000
v 215.426407 -0.000000 2.943200
v 215.426407 345.169312 2.943356
v 248.168793 397.388306 -1.716635
v 433.291199 482.883301 -28.063421
v 338.596191 397.388306 -14.586335
v 380.300415 345.169312 -20.521744
v 433.291199 0.000005 -28.063499
v 380.300415 0.000003 -20.521799
v -366.976013 346.741791 28.169558
v -419.339600 -0.000006 35.621899
v -419.339600 482.883301 35.621979
v -325.048615 396.000000 22.202364
v -173.184494 482.883301 0.588979
v -256.448486 396.000000 12.439165
v -217.105301 358.758514 6.839759
v -217.105301 -0.000001 6.839700
v -173.184494 -0.000000 0.588900
v -366.976013 -0.000005 28.169500
v -179.120102 0.000007 -41.116901
v -179.120102 482.883301 -41.116718
v -156.898300 482.883301 -44.279419
v -156.898300 0.000007 -44.279499
v -443.109100 320.842590 -3.545548
v -443.109100 482.883301 -3.545521
v -425.275208 482.883301 -6.083721
v -425.275208 0.000001 -6.083800
v -487.153503 320.842590 2.722852
v -487.153503 -0.000000 2.722800
v 207.382797 345.169312 -53.573742
v 170.302094 0.000008 -48.296501
v 170.302094 482.883301 -48.296421
v 240.125198 397.388306 -58.233734
v 416.337402 482.883301 -83.312424
v 330.552612 397.388306 -71.103439
v 372.256897 345.169312 -77.038849
v 372.256897 0.000013 -77.038902
v 416.337402 0.000014 -83.312500
v 207.382797 0.000009 -53.573898
v 410.401794 0.000020 -125.018204
v 410.401794 482.883331 -125.018127
v 434.270111 482.883331 -128.415024
v 434.270111 320.842621 -128.415161
v 468.570099 0.000022 -133.296799
v 468.570099 320.842621 -133.296753
v 96.678299 379.527588 19.843660
v 96.678299 -0.000003 19.843599
v 147.243805 -0.000002 12.647100
v 138.434692 482.883301 13.900878
v 147.243805 482.883301 12.647179
v 138.434692 507.940796 13.900883
v 40.623798 432.959991 27.821371
v -6.157700 572.895874 34.479393
v -40.449001 432.959991 39.359768
v -90.023003 379.527588 46.415161
v -137.969498 507.292786 53.238983
v -90.023003 -0.000008 46.415100
v -137.969498 482.883301 53.238979
v -137.969498 -0.000009 53.238899
v -133.365204 482.883301 85.590179
v -133.365204 507.292786 85.590187
v 151.848099 482.883301 44.998280
v 151.848099 -0.000007 44.998199
v 174.895294 -0.000007 41.718102
v 174.895294 482.883301 41.718182
v -424.525696 320.842560 127.028450
v -468.570099 320.842560 133.296844
v -468.570099 -0.000022 133.296799
v -397.188812 -0.000020 123.137703
v -397.188812 482.883270 123.137779
v -424.525696 482.883270 127.028473
v -401.792999 -0.000015 90.786499
v -358.932404 -0.000014 84.686600
v -358.932404 346.741791 84.686653
v -401.792999 482.883301 90.786674
v -317.005005 396.000000 78.719460
v -163.197906 482.883301 56.829578
v -248.404907 396.000000 68.956261
v -209.061798 358.758514 63.356857
v -163.197906 -0.000009 56.829399
v -209.061798 -0.000010 63.356800
v 452.853485 320.842590 2.158852
v 437.895386 482.883301 4.287779
v 437.895386 -0.000001 4.287700
v 487.153503 0.000000 -2.722800
v 487.153503 320.842590 -2.722748
v 452.853485 482.883301 2.158879
v 164.366501 0.000015 -90.002197
v 134.832794 0.000014 -85.799004
v 134.832794 482.883301 -85.798820
v 164.366501 482.883301 -90.002121
v -188.395493 511.587189 -39.796616
v -188.395493 530.091125 -39.796612
v -20.825300 605.905518 -63.645401
v -156.898300 509.850586 -44.279415
v -1.452100 573.148376 -66.402611
v 1.427100 605.905518 -66.812401
v 134.832794 518.710083 -85.798813
v 170.975296 530.091125 -90.942719
v 170.975296 511.587189 -90.942719
v 434.270111 511.587219 -128.415024
v -443.109100 511.587189 -3.545516
v -158.593704 482.883301 89.180679
v -158.593704 -0.000015 89.180603
v -133.365204 -0.000014 85.590103
v 143.039001 507.940796 46.252083
v 143.039001 482.883301 46.252079
v 189.558701 530.091125 39.631287
v 20.010500 605.905518 63.761600
v -1.553500 572.895874 66.830589
v -2.241900 605.905518 66.928596
v -169.812103 530.091125 90.777382
v -169.812103 511.587189 90.777382
v -424.525696 511.587158 127.028481
v 189.558701 511.587189 39.631283
v 452.853485 511.587189 2.158883
vn -0.1409 -0.0000 -0.9900
vn 0.1409 -0.0000 0.9900
vn 0.9900 -0.0000 -0.1409
vn -0.0000 -1.0000 -0.0000
vn -0.9900 -0.0000 0.1409
vn 0.7224 -0.6838 -0.1028
vn -0.7706 -0.6279 0.1097
vn 0.4008 0.9144 -0.0570
vn -0.0000 1.0000 -0.0000
vn -0.4023 -0.9137 0.0573
vn 0.8364 -0.5351 -0.1190
vn 0.7507 -0.6519 -0.1068
vn -0.6770 -0.7297 0.0963
vn 0.4376 -0.8970 -0.0623
vn -0.6795 -0.7273 0.0967
vn -0.4047 0.9126 0.0576
vn -0.3641 -0.9299 0.0518
vn 0.3702 -0.9275 -0.0527
vt 0.253994 0.253741
vt 0.839652 0.325820
vt 0.631224 0.761066
vt 0.724847 0.000940
vt 0.289583 0.000940
vt 0.804063 0.578621
vt 0.635896 0.813524
vt 0.293850 0.890305
vt 0.354156 0.907071
vt 0.289583 0.322585
vt 0.934497 0.000940
vt 0.553061 0.542588
vt 0.314251 0.813524
vt 0.474573 0.428286
vt 0.220641 0.289332
vt 0.901244 0.069883
vt 0.631224 0.809843
vt 0.130939 0.851853
vt 0.934497 0.197218
vt 0.218761 0.000940
vt 0.628069 0.649372
vt 0.356782 0.542588
vt 0.067389 0.851853
vt 0.764752 0.000940
vt 0.150005 0.326371
vt 0.901244 0.124429
vt 0.150005 0.041888
vt 0.130939 0.906399
vt 0.352276 0.883941
vt 0.191355 0.073181
vt 0.253740 0.690398
vt 0.352276 0.935797
vt 0.218761 0.324492
vt 0.628069 0.325820
vt 0.555583 0.526253
vt 0.000940 0.690398
vt 0.593199 0.329623
vt 0.921114 0.199098
vt 0.520507 0.526253
vt 0.764752 0.322586
vt 0.839652 0.578621
vt 0.724847 0.253741
vt 0.354848 0.906541
vt 0.553061 0.560551
vt 0.223518 0.733294
vt 0.474573 0.410323
vt 0.448475 0.602713
vt 0.067389 0.961501
vt 0.447380 0.714016
vt 0.110754 0.733294
vt 0.047432 0.864939
vt 0.173869 0.326371
vt 0.348777 0.714017
vt 0.710221 0.325820
vt 0.312371 0.501413
vt 0.915931 0.239184
vt 0.263552 0.782009
vt 0.710221 0.647465
vt 0.647229 0.582137
vt 0.200485 0.704809
vt 0.915931 0.560829
vt 0.679854 0.647465
vt 0.629948 0.607108
vt 0.952024 0.904026
vt 0.824632 0.000940
vt 0.679854 0.417550
vt 0.220641 0.471046
vt 0.824631 0.230855
vt 0.102972 0.150225
vt 0.255423 0.449017
vt 0.781345 0.651252
vt 0.724847 0.255620
vt 0.106643 0.109217
vt 0.312371 0.324465
vt 0.682930 0.746492
vt 0.553007 0.000940
vt 0.890405 0.239184
vt 0.263552 0.958957
vt 0.759177 0.707910
vt 0.724847 0.316460
vt 0.674638 0.610111
vt 0.781345 0.746713
vt 0.588660 0.092670
vt 0.629948 0.610111
vt 0.843968 0.580501
vt 0.553007 0.322585
vt 0.890405 0.560829
vt 0.694851 0.904137
vt 0.623715 0.883941
vt 0.588660 0.322585
vt 0.623715 0.919593
vt 0.843968 0.810416
vt 0.319672 0.231902
vt 0.899364 0.234574
vt 0.804063 0.580501
vt 0.543906 0.921966
vt 0.354902 0.000940
vt 0.899364 0.000940
vt 0.822752 0.322585
vt 0.097362 0.603814
vt 0.140874 0.565312
vt 0.354902 0.322585
vt 0.507132 0.604593
vt 0.000940 0.849973
vt 0.822752 0.000940
vt 0.291463 0.264712
vt 0.449260 0.668033
vt 0.418733 0.930095
vt 0.500636 0.921966
vt 0.507132 0.770208
vt 0.551128 0.000940
vt 0.741527 0.648819
vt 0.166555 0.849973
vt 0.774124 0.325820
vt 0.449260 0.714187
vt 0.500637 0.063695
vt 0.418733 0.883941
vt 0.583811 0.883941
vt 0.529265 0.085975
vt 0.583811 0.920218
vt 0.239907 0.820034
vt 0.551128 0.323940
vt 0.741527 0.325820
vt 0.714168 0.869038
vt 0.416853 0.883941
vt 0.000940 0.820034
vt 0.712101 0.328523
vt 0.774124 0.647466
vt 0.308801 0.890305
vt 0.384887 0.946467
vt 0.731934 0.892651
vt 0.864536 0.006252
vt 0.804064 0.811463
vt 0.168945 0.544023
vt 0.883873 0.904026
vt 0.635893 0.882061
vt 0.802184 0.647466
vt 0.308801 0.918365
vt 0.314251 0.882061
vt 0.239760 0.643659
vt 0.977236 0.416797
vt 0.166555 0.821914
vt 0.802184 0.325820
vt 0.314251 0.867110
vt 0.239760 0.628708
vt 0.314251 0.841584
vt 0.446513 0.428286
vt 0.635893 0.867110
vt 0.635896 0.841584
vt 0.293850 0.918365
vt 0.983768 0.794213
vt 0.278858 0.842419
vt 0.108874 0.692278
vt 0.233919 0.692278
vt 0.983768 0.902147
vt 0.344191 0.664172
vt 0.479637 0.971792
vt 0.000940 0.692278
vt 0.971769 0.902147
vt 0.977235 0.251182
vt 0.354354 0.670550
vt 0.000940 0.821914
vt 0.794692 0.000940
vt 0.971769 0.580501
vt 0.266860 0.628708
vt 0.794692 0.322585
vt 0.097362 0.631874
vt 0.308492 0.842419
vt 0.356782 0.214651
vt 0.263552 0.692278
vt 0.308492 0.628708
vt 0.138994 0.631874
vt 0.356782 0.000940
vt 0.961180 0.232204
vt 0.862657 0.230855
vt 0.065099 0.146835
vt 0.148126 0.362682
vt 0.961180 0.000940
vt 0.901244 0.199098
vt 0.500637 0.526253
vt 0.675413 0.608231
vt 0.952024 0.949505
vt 0.314251 0.324465
vt 0.000940 0.076688
vt 0.314251 0.646110
vt 0.762872 0.255620
vt 0.068769 0.105827
vt 0.148126 0.000940
vt 0.498757 0.000940
vt 0.722968 0.000940
vt 0.563260 0.488228
vt 0.314251 0.811644
vt 0.122866 0.077986
vt 0.446513 0.062946
vt 0.762872 0.316460
vt 0.674638 0.648136
vt 0.477647 0.095006
vt 0.629948 0.648136
vt 0.881993 0.580501
vt 0.498757 0.323950
vt 0.693310 0.322585
vt 0.585690 0.919593
vt 0.881993 0.810416
vt 0.722968 0.322585
vt 0.170545 0.692278
vt 0.710659 0.869038
vt 0.585690 0.889936
vt 0.563260 0.809874
vt 0.936377 0.003631
vt 0.931165 0.935819
vt 0.862657 0.000940
vt 0.802184 0.649346
vt 0.344191 0.772508
vt 0.198605 0.692278
vt 0.591320 0.809874
vt 0.802184 0.970992
vt 0.773354 0.748593
vt 0.168434 0.983001
vt 0.591320 0.488228
vt 0.342311 0.811644
vt 0.786125 0.970992
vt 0.168434 0.999060
vt 0.477757 0.971792
vt 0.593199 0.651252
vt 0.786125 0.863058
vt 0.557902 0.788567
vt 0.593199 0.759186
vt 0.132819 0.939704
vt 0.344191 0.811644
vt 0.198605 0.731414
vt 0.356782 0.430242
vt 0.557902 0.811644
vt 0.356782 0.216531
vt 0.155896 0.939704
vt 0.595197 0.254324
vt 0.446513 0.399918
vt 0.253740 0.652373
vt 0.314251 0.935797
vt 0.590540 0.001567
vt 0.555583 0.488228
vt 0.675413 0.541411
vt 0.218118 0.730086
vt 0.000940 0.652373
vt 0.624555 0.000940
vt 0.350118 0.324465
vt 0.209411 0.717371
vt 0.840339 0.813343
vt 0.929285 0.902146
vt 0.624555 0.322640
vt 0.344191 0.646097
vt 0.484368 0.335920
vt 0.348777 0.765722
vt 0.175749 0.326371
vt 0.350118 0.646097
vt 0.181676 0.326371
vt 0.929285 0.580501
vt 0.497663 0.325830
vt 0.095482 0.544023
vt 0.365468 0.765722
vt 0.045553 0.958323
vt 0.497663 0.408444
vt 0.023106 0.583857
vt 0.092914 0.906399
vt 0.314251 0.883941
vt 0.095482 0.650493
vt 0.447380 0.604593
vt 0.045553 0.851853
vt 0.091035 0.950718
vt 0.000940 0.633696
vt 0.373966 0.666487
vt 0.593199 0.809843
vt 0.092914 0.851853
vt 0.356782 0.712137
vt 0.841532 0.327081
vt 0.593199 0.761066
vt 0.762872 0.000940
vt 0.447380 0.703458
vt 0.865137 0.239184
vt 0.498219 0.426582
vt 0.091035 0.851853
vt 0.866760 0.578621
vt 0.626434 0.322586
vt 0.762872 0.253741
vt 0.384887 0.883941
vt 0.731934 0.955898
vt 0.866760 0.255361
vt 0.658693 0.000940
vt 0.498219 0.410323
vt 0.883873 0.580501
vt 0.658693 0.322586
vt 0.712539 0.930121
vt 0.416853 0.944385
vt 0.241640 0.650474
vt 0.883873 0.902146
vt 0.476453 0.410323
vt 0.952915 0.580501
vt 0.219997 0.703525
vt 0.905639 0.580501
vt 0.476453 0.426582
vt 0.560249 0.726590
vt 0.871018 0.835678
vt 0.231739 0.692278
vt 0.069269 0.851853
vt 0.975356 0.239184
vt 0.308943 0.848021
vt 0.554404 0.768874
vt 0.181676 0.348137
vt 0.907519 0.580501
vt 0.975356 0.560830
vt 0.827709 0.831070
vt 0.907519 0.902146
vt 0.959849 0.560830
vt 0.218118 0.692278
vt 0.840339 0.840067
vt 0.937697 0.560829
vt 0.959849 0.239184
vt 0.542336 0.759137
vt 0.982179 0.000940
vt 0.937697 0.239184
vt 0.241786 0.782009
vt 0.648341 0.325820
vt 0.939577 0.452893
vt 0.108874 0.780129
vt 0.233919 0.780129
vt 0.677974 0.325820
vt 0.444633 0.214651
vt 0.263552 0.780129
vt 0.677974 0.539531
vt 0.138994 0.544023
vt 0.143831 0.638109
vt 0.645420 0.883941
vt 0.444633 0.000940
vt 0.629948 0.539531
vt 0.957969 0.239184
vt 0.635897 0.843464
vt 0.625595 0.927684
vt 0.957969 0.560827
vt 0.540457 0.604593
vt 0.217474 0.974894
vt 0.314251 0.843464
vt 0.825830 0.973871
vt 0.939577 0.560827
vt 0.217474 0.993286
vt 0.479637 0.883941
vt 0.000940 0.780129
vt 0.772244 0.647465
vt 0.635897 0.865230
vt 0.168945 0.591746
vt 0.921898 0.932863
vt 0.645420 0.936669
vt 0.743407 0.647465
vt 0.842089 0.811463
vt 0.921898 0.904026
vt 0.743407 0.416503
vt 0.500637 0.457511
vt 0.842089 0.580501
vt 0.543906 0.883941
vt 0.772244 0.325820
vt 0.591320 0.486348
vt 0.314251 0.865230
vt 0.804064 0.973871
vt 0.533447 0.429302
vt 0.740029 0.867159
vt 0.456758 0.930095
vt 0.500636 0.883941
vt 0.591320 0.325820
vt 0.740029 0.748593
vt 0.691430 0.322586
vt 0.914051 0.239184
vt 0.804063 0.813343
vt 0.697565 0.849075
vt 0.456758 0.883941
vt 0.545786 0.883941
vt 0.682930 0.815881
vt 0.660573 0.239907
vt 0.545786 0.920218
vt 0.239907 0.782009
vt 0.691430 0.000940
vt 0.386767 0.907867
vt 0.258614 0.650474
vt 0.914051 0.560829
vt 0.660573 0.000940
vt 0.387409 0.907348
vt 0.000940 0.782009
vt 0.217709 0.541322
vt 0.681050 0.761066
vt 0.656227 0.761066
vt 0.681050 0.759186
vt 0.132819 0.851853
vt 0.218761 0.649720
vt 0.646163 0.869000
vt 0.982179 0.177888
vt 0.344191 0.672430
vt 0.868639 0.239184
vt 0.241786 0.958957
vt 0.185794 0.329768
vt 0.868639 0.560829
vt 0.682930 0.922349
vt 0.218761 0.326371
vt 0.681050 0.976020
vt 0.110754 0.731414
vt 0.710659 0.940499
vt 0.444633 0.430242
vt 0.658106 0.763543
vt 0.444633 0.216531
vt 0.155896 0.851853
vt 0.656227 0.869000
vt 0.354254 0.672430
vt 0.477757 0.883941
vt 0.681050 0.651252
vt 0.931165 0.580501
vt 0.901244 0.227158
vt 0.342311 0.324465
vt 0.951035 0.580501
vt 0.921114 0.227158
vt 0.792812 0.322586
vt 0.951035 0.902146
vt 0.773354 0.933997
vt 0.792812 0.000940
vt 0.150005 0.354431
vt 0.931165 0.902146
vt 0.773354 0.914127
vt 0.342311 0.646110
vt 0.010658 0.851853
vt 0.220641 0.649900
vt 0.996355 0.410556
vt 0.170825 0.631874
vt 0.000940 0.454293
vt 0.021907 0.856892
vt 0.183151 0.631874
vt 0.220641 0.503293
vt 0.021907 0.980427
vt 0.266860 0.858185
vt 0.356782 0.519973
vt 0.220641 0.626828
vt 0.000940 0.870720
vt 0.291970 0.967018
vt 0.221797 0.628708
vt 0.223518 0.761354
vt 0.446513 0.410323
vt 0.291970 0.854254
vt 0.378815 0.540708
vt 0.447380 0.742076
vt 0.110754 0.761354
vt 0.272457 0.844299
vt 0.371754 0.519973
vt 0.477338 0.536748
vt 0.749490 0.933997
vt 0.173869 0.354431
vt 0.348777 0.742076
vt 0.741909 0.909680
vt 0.824631 0.320585
vt 0.496505 0.519973
vt 0.754234 0.909680
vt 0.187554 0.821914
vt 0.836957 0.320585
vt 0.178086 0.364562
vt 0.187554 0.999060
vt 0.458637 0.971792
vt 0.000940 0.364562
vt 0.996355 0.239184
vt 0.354354 0.647977
vt 0.172313 0.454293
vt 0.498756 0.971792
vt 0.969889 0.580501
vt 0.873413 0.812295
vt 0.540457 0.765121
vt 0.231739 0.715783
vt 0.892285 0.239184
vt 0.825830 0.813343
vt 0.969889 0.902144
vt 0.258614 0.628708
vt 0.892285 0.560829
vt 0.952916 0.902144
vt 0.241640 0.628708
vt 0.905639 0.902146
vt 0.293850 0.857289
vt 0.189433 0.844561
vt 0.365468 0.743956
vt 0.023787 0.958323
vt 0.304331 0.844299
vt 0.348777 0.743956
vt 0.175749 0.348137
vt 0.308943 0.888425
vt 0.215595 0.821914
vt 0.554404 0.728470
vt 0.824631 0.232735
vt 0.496505 0.432122
vt 0.215595 0.946665
vt 0.551308 0.604593
vt 0.371754 0.432122
vt 0.189616 0.951031
vt 0.542336 0.629361
vt 0.023787 0.851853
vt 0.069269 0.950718
vt 0.560249 0.616602
vt 0.873413 0.945640
vt 0.356782 0.432122
vt 0.308492 0.626828
vt 0.843968 0.825665
vt 0.509012 0.757573
vt 0.183151 0.544023
vt 0.308492 0.503293
vt 0.521337 0.757573
vt 0.236594 0.821914
vt 0.170825 0.544023
vt 0.000940 0.542144
vt 0.236594 0.993287
vt 0.172313 0.542144
vt 0.498756 0.883941
vt 0.546664 0.738062
vt 0.963059 0.010806
vt 0.836957 0.232735
vt 0.178086 0.452413
vt 0.963059 0.187952
vt 0.354254 0.691549
vt 0.458637 0.883941
vt 0.000940 0.452413
s 1
usemtl Material.001
f 1/1/1 2/5/1 3/10/1 4/15/1
f 4/16/1 3/11/1 5/19/1 6/26/1
f 7/30/1 6/27/1 5/20/1 8/33/1
f 8/34/1 5/21/1 9/37/1
f 10/41/1 2/6/1 1/2/1
f 3/12/1 11/44/1 12/47/1 5/22/1
f 5/23/1 12/48/1 13/51/1
f 14/54/2 15/58/2 16/62/2 17/66/2
f 14/55/2 17/67/2 18/70/2 19/74/2
f 19/75/2 18/71/2 20/79/2 21/82/2
f 22/86/2 19/76/2 21/83/2 23/90/2
f 24/93/1 25/97/1 26/102/1 27/106/1
f 27/107/1 26/103/1 28/110/1 29/115/1
f 30/119/1 29/116/1 28/111/1 31/122/1
f 31/123/1 28/112/1 32/127/1
f 33/132/1 25/98/1 24/94/1
f 34/136/1 35/139/1 36/144/1 37/148/1
f 38/151/1 39/155/1 40/159/1 41/164/1
f 42/168/1 38/152/1 41/165/1 43/171/1
f 44/176/1 45/177/1 46/184/1 47/187/1
f 47/187/1 46/184/1 48/188/1 49/193/1
f 50/197/1 49/194/1 48/189/1 51/200/1
f 51/201/1 48/190/1 52/204/1
f 53/209/1 45/178/1 44/174/1
f 54/212/1 55/216/1 56/221/1 57/225/1
f 58/229/1 54/213/1 57/226/1 59/232/1
f 60/235/2 61/239/2 62/244/2 63/249/2
f 63/250/2 62/245/2 64/254/2
f 60/236/2 63/251/2 65/257/2 66/261/2
f 66/262/2 65/258/2 67/265/2 68/269/2
f 69/273/2 68/270/2 67/266/2 70/277/2
f 71/281/2 69/274/2 70/278/2 72/286/2
f 71/282/2 72/287/2 73/290/2
f 74/295/3 72/288/3 70/279/3 75/299/3
f 76/304/2 77/309/2 78/312/2 79/316/2
f 80/321/2 81/325/2 82/328/2 83/333/2
f 80/322/2 83/334/2 84/337/2 85/342/2
f 86/346/2 87/351/2 88/354/2 89/358/2
f 89/359/2 88/355/2 90/362/2 91/366/2
f 91/367/2 90/363/2 92/371/2 93/374/2
f 94/378/2 91/368/2 93/375/2 95/382/2
f 96/385/2 97/390/2 98/396/2 99/399/2
f 96/386/2 99/400/2 100/404/2
f 97/391/2 96/387/2 101/407/2
f 102/411/1 103/414/1 104/417/1 105/421/1
f 106/424/1 107/429/1 108/432/1 109/436/1
f 110/441/1 109/437/1 108/433/1 111/445/1
f 112/447/1 110/442/1 111/446/1 113/453/1
f 104/418/1 112/448/1 113/451/1 105/422/1
f 105/422/1 113/451/1 114/454/1 55/217/1
f 55/218/1 114/455/1 115/458/1 56/222/1
f 35/140/1 106/425/1 109/438/1 36/145/1
f 106/426/1 35/141/1 40/160/1 116/461/1
f 116/462/1 40/161/1 39/156/1
f 117/465/2 118/471/2 119/474/2 74/296/2
f 120/477/2 121/481/2 76/305/2 122/484/2
f 120/478/2 122/485/2 123/489/2 124/492/2
f 124/493/2 123/490/2 125/496/2 75/300/2
f 75/301/2 125/497/2 126/500/2 117/466/2
f 117/467/2 126/501/2 127/504/2 84/338/2
f 85/343/2 84/339/2 127/505/2 128/508/2
f 75/302/2 117/468/2 74/297/2
f 122/486/2 76/306/2 79/317/2 129/511/2
f 129/512/2 79/318/2 97/392/2 130/515/2
f 130/516/2 97/393/2 101/408/2
f 9/38/4 103/415/4 102/412/4 45/179/4
f 9/39/4 45/180/4 61/240/4 8/35/4
f 15/59/4 61/241/4 45/181/4 16/63/4
f 16/64/4 45/182/4 53/210/4
f 62/246/4 61/242/4 15/60/4 78/313/4
f 62/247/4 78/314/4 77/310/4
f 19/77/5 22/87/5 98/397/5 97/394/5
f 69/275/6 1/3/6 4/17/6 68/271/6
f 17/68/3 16/65/3 53/211/3 44/175/3
f 107/430/5 106/427/5 127/506/5 126/502/5
f 18/72/4 47/186/4 49/195/4 20/80/4
f 129/513/3 114/456/3 113/452/3 122/487/3
f 50/198/7 21/84/7 20/81/7 49/196/7
f 69/276/3 71/283/3 10/42/3 1/4/3
f 26/104/4 40/162/4 35/142/4 28/113/4
f 122/488/8 113/453/8 111/446/8 123/491/8
f 78/315/3 15/61/3 14/56/3 79/319/3
f 104/419/5 103/416/5 9/40/5 5/24/5
f 35/143/5 34/137/5 32/128/5 28/114/5
f 2/7/3 37/149/3 36/146/3 3/13/3
f 83/335/3 86/347/3 89/360/3 84/340/3
f 106/428/9 116/463/9 128/509/9 127/507/9
f 87/352/3 33/133/3 24/95/3 88/356/3
f 52/205/4 54/214/4 58/230/4 99/401/4
f 22/88/4 52/206/4 99/402/4 98/398/4
f 52/207/4 22/89/4 23/91/4 51/202/4
f 34/138/4 37/150/4 2/8/4 32/129/4
f 32/130/4 2/9/4 10/43/4 71/284/4
f 31/124/4 32/131/4 71/285/4 73/291/4
f 95/383/4 31/125/4 73/292/4 94/379/4
f 94/380/4 73/293/4 119/475/4 118/472/4
f 63/252/5 121/482/5 120/479/5 65/259/5
f 63/253/4 64/255/4 76/307/4 121/483/4
f 124/494/10 67/267/10 65/260/10 120/480/10
f 25/99/3 41/166/3 40/163/3 26/105/3
f 82/329/4 43/172/4 41/167/4 25/100/4
f 82/330/4 25/101/4 33/134/4 86/348/4
f 86/349/4 33/135/4 87/353/4
f 82/331/4 86/350/4 83/336/4
f 116/464/5 39/157/5 85/344/5 128/510/5
f 111/446/9 108/434/9 125/498/9 123/491/9
f 101/409/3 56/223/3 115/459/3 130/517/3
f 79/320/4 14/57/4 19/78/4 97/395/4
f 55/219/5 54/215/5 52/208/5 48/191/5
f 17/69/11 44/176/11 47/187/11 18/73/11
f 7/31/5 8/36/5 61/243/5 60/237/5
f 27/108/4 29/117/4 92/372/4 90/364/4
f 88/357/12 24/96/12 27/109/12 90/365/12
f 29/118/13 30/120/13 93/376/13 92/373/13
f 75/303/14 70/280/14 67/268/14 124/495/14
f 4/18/4 6/28/4 66/263/4 68/272/4
f 30/121/5 31/126/5 95/384/5 93/377/5
f 6/29/15 7/32/15 60/238/15 66/264/15
f 91/369/5 94/381/5 118/473/5 117/469/5
f 119/476/3 73/294/3 72/289/3 74/298/3
f 84/341/4 89/361/4 91/370/4 117/470/4
f 130/518/9 115/460/9 114/457/9 129/514/9
f 45/183/3 102/413/3 105/423/3 46/185/3
f 62/248/5 77/311/5 76/308/5 64/256/5
f 51/203/5 23/92/5 21/85/5 50/199/5
f 108/435/16 107/431/16 126/503/16 125/499/16
f 46/185/4 105/423/4 55/220/4 48/192/4
f 104/420/5 5/25/5 13/52/5 112/449/5
f 12/49/17 110/443/17 112/450/17 13/53/17
f 11/45/18 109/439/18 110/444/18 12/50/18
f 3/14/3 36/147/3 109/440/3 11/46/3
f 39/158/5 38/153/5 80/323/5 85/345/5
f 96/388/3 57/227/3 56/224/3 101/410/3
f 42/169/5 43/173/5 82/332/5 81/326/5
f 38/154/9 42/170/9 81/327/9 80/324/9
f 99/403/3 58/231/3 59/233/3 100/405/3
f 59/234/9 57/228/9 96/389/9 100/406/9
