# 3ds Max Wavefront OBJ Exporter v0.97b - (c)2007 guruware
# File Created: 23.10.2013 16:49:06

mtllib Teeter03.mtl

#
# object Teeter03
#

v  18.6836 453.3716 -33.0469
v  38.3008 453.3716 0.9297
v  38.3008 -337.5038 0.9297
v  18.6836 -337.5038 -33.0469
v  -20.5508 -337.5038 -33.0469
v  -20.5508 453.3717 -33.0469
v  -40.1641 453.3717 0.9297
v  -40.1641 -337.5038 0.9297
v  -20.5508 453.3716 34.9082
v  -20.5469 -337.5038 34.9063
v  18.6836 453.3716 34.9082
v  18.6836 -337.5038 34.9082
v  676.3633 -185.2601 -245.5859
v  719.8320 -185.2601 0.9297
v  719.8320 -223.8630 0.9297
v  676.3633 -223.8630 -245.5859
v  551.2070 -185.2601 -462.3672
v  551.2070 -223.8630 -462.3672
v  359.4492 -185.2600 -623.2695
v  359.4492 -223.8630 -623.2695
v  124.2266 -185.2600 -708.8848
v  124.2266 -223.8629 -708.8828
v  -0.9336 -223.8630 -708.8848
v  -0.9336 -185.2601 -708.8848
v  -361.3125 -185.2601 -623.2695
v  -126.0898 -185.2601 -708.8848
v  -126.0898 -223.8630 -708.8848
v  -361.3125 -223.8630 -623.2695
v  -553.0703 -185.2601 -462.3672
v  -553.0703 -223.8630 -462.3672
v  -678.2305 -185.2602 -245.5859
v  -678.2305 -223.8631 -245.5859
v  -721.6953 -185.2602 0.9297
v  -721.6954 -223.8632 0.9297
v  -678.2305 -223.8632 247.4453
v  -678.2305 -185.2602 247.4453
v  -553.0703 -185.2602 464.2285
v  -553.0703 -223.8632 464.2285
v  -361.3164 -185.2603 625.1289
v  -361.3164 -223.8632 625.1289
v  -126.0938 -185.2603 710.7441
v  -126.0938 -223.8632 710.7441
v  -0.9336 -223.8631 710.7441
v  -0.9336 -185.2602 710.7441
v  359.4492 -185.2602 625.1309
v  124.2266 -185.2602 710.7441
v  124.2266 -223.8631 710.7441
v  359.4492 -223.8631 625.1309
v  551.2031 -185.2602 464.2285
v  551.2031 -223.8631 464.2285
v  676.3633 -185.2601 247.4473
v  676.3633 -223.8630 247.4473
v  -0.9336 -223.8631 0.9297
v  -0.9336 -185.2601 0.9297
v  -575.3867 105.3115 10.8809
v  -597.2383 115.9138 10.8809
v  -661.9375 -197.5754 10.8809
v  -640.1719 -197.5754 10.8809
v  -575.3867 105.3115 -10.8809
v  -640.1719 -197.5754 -10.8809
v  -661.9375 -197.5754 -10.8809
v  -597.2383 115.9138 -10.8809
v  -356.9688 356.2501 10.8809
v  -344.9844 333.9048 10.8809
v  -21.3086 356.5598 10.8809
v  -21.3086 378.8818 10.8809
v  -356.9688 356.2501 -10.8809
v  -21.3086 378.8818 -10.8809
v  -21.3086 356.5598 -10.8809
v  -344.9844 333.9048 -10.8809
v  -466.6445 274.4961 10.8809
v  -514.7500 230.2807 10.8809
v  -514.7500 230.2807 -10.8809
v  -466.6445 274.4961 -10.8809
v  -485.6953 291.5427 10.8809
v  -537.0039 241.1670 10.8809
v  -537.0039 241.1670 -10.8809
v  -485.6953 291.5427 -10.8809
v  -552.4883 169.3884 10.8809
v  -552.4883 169.3884 -10.8809
v  -410.6250 312.3475 10.8809
v  -422.4766 334.5513 10.8809
v  -422.4766 334.5513 -10.8809
v  -410.6250 312.3475 -10.8809
v  -574.4961 180.1213 10.8809
v  -574.4961 180.1213 -10.8809
v  10.8828 105.3115 575.3848
v  10.8828 115.9138 597.2383
v  10.8828 -197.5754 661.9375
v  10.8828 -197.5754 640.1738
v  -10.8828 105.3115 575.3848
v  -10.8828 -197.5754 640.1738
v  -10.8828 -197.5754 661.9375
v  -10.8828 115.9138 597.2383
v  10.8828 356.2501 356.9688
v  10.8828 333.9048 344.9863
v  10.8828 356.5598 21.3066
v  10.8828 378.8818 21.3066
v  -10.8828 356.2501 356.9688
v  -10.8828 378.8818 21.3066
v  -10.8828 356.5598 21.3066
v  -10.8828 333.9048 344.9863
v  10.8828 274.4961 466.6465
v  10.8828 230.2807 514.7500
v  -10.8828 230.2807 514.7500
v  -10.8828 274.4961 466.6465
v  10.8828 291.5427 485.6934
v  10.8828 241.1670 537.0039
v  -10.8828 241.1670 537.0039
v  -10.8828 291.5427 485.6934
v  10.8828 169.3884 552.4883
v  -10.8828 169.3884 552.4883
v  10.8828 312.3475 410.6230
v  10.8828 334.5513 422.4766
v  -10.8828 334.5513 422.4766
v  -10.8828 312.3475 410.6230
v  10.8828 180.1213 574.4961
v  -10.8828 180.1213 574.4961
v  575.3867 105.3115 -10.8809
v  597.2383 115.9138 -10.8809
v  661.9375 -197.5754 -10.8809
v  640.1719 -197.5754 -10.8809
v  575.3867 105.3115 10.8809
v  640.1719 -197.5754 10.8809
v  661.9375 -197.5754 10.8809
v  597.2383 115.9138 10.8809
v  356.9688 356.2501 -10.8809
v  344.9844 333.9048 -10.8809
v  21.3086 356.5598 -10.8809
v  21.3086 378.8818 -10.8809
v  356.9688 356.2501 10.8809
v  21.3086 378.8818 10.8809
v  21.3086 356.5598 10.8809
v  344.9844 333.9048 10.8809
v  466.6445 274.4961 -10.8809
v  514.7500 230.2807 -10.8809
v  514.7500 230.2807 10.8809
v  466.6445 274.4961 10.8809
v  485.6953 291.5427 -10.8809
v  537.0039 241.1670 -10.8809
v  537.0039 241.1670 10.8809
v  485.6953 291.5427 10.8809
v  552.4883 169.3884 -10.8809
v  552.4883 169.3884 10.8809
v  410.6250 312.3475 -10.8809
v  422.4766 334.5513 -10.8809
v  422.4766 334.5513 10.8809
v  410.6250 312.3475 10.8809
v  574.4961 180.1213 -10.8809
v  574.4961 180.1213 10.8809
v  -10.8828 105.3115 -575.3848
v  -10.8828 115.9138 -597.2383
v  -10.8828 -197.5754 -661.9375
v  -10.8828 -197.5754 -640.1738
v  10.8828 105.3115 -575.3848
v  10.8828 -197.5754 -640.1738
v  10.8828 -197.5754 -661.9375
v  10.8828 115.9138 -597.2383
v  -10.8828 356.2501 -356.9688
v  -10.8828 333.9048 -344.9863
v  -10.8828 356.5598 -21.3066
v  -10.8828 378.8818 -21.3066
v  10.8828 356.2501 -356.9688
v  10.8828 378.8818 -21.3066
v  10.8828 356.5598 -21.3066
v  10.8828 333.9048 -344.9863
v  -10.8828 274.4961 -466.6465
v  -10.8828 230.2807 -514.7500
v  10.8828 230.2807 -514.7500
v  10.8828 274.4961 -466.6465
v  -10.8828 291.5427 -485.6934
v  -10.8828 241.1670 -537.0039
v  10.8828 241.1670 -537.0039
v  10.8828 291.5427 -485.6934
v  -10.8828 169.3884 -552.4883
v  10.8828 169.3884 -552.4883
v  -10.8828 312.3475 -410.6230
v  -10.8828 334.5513 -422.4766
v  10.8828 334.5513 -422.4766
v  10.8828 312.3475 -410.6230
v  -10.8828 180.1213 -574.4961
v  10.8828 180.1213 -574.4961
# 182 vertices

vn 0.5000 0.0000 -0.8660
vn 1.0000 0.0000 -0.0000
vn -0.5000 0.0000 -0.8660
vn -1.0000 0.0000 -0.0000
vn -1.0000 -0.0000 0.0000
vn -0.5000 -0.0000 0.8660
vn 0.5000 -0.0000 0.8660
vn 0.5000 0.0000 0.8660
vn 0.0000 1.0000 0.0000
vn 0.0000 1.0000 -0.0000
vn 0.9397 0.0000 -0.3420
vn 0.7660 0.0000 -0.6428
vn 0.5000 -0.0000 -0.8660
vn 0.1737 -0.0000 -0.9848
vn 0.0000 -0.0000 -1.0000
vn 0.0000 0.0000 -1.0000
vn -0.1737 0.0000 -0.9848
vn -0.7660 0.0000 -0.6428
vn -0.9397 0.0000 -0.3420
vn -0.9397 0.0000 0.3420
vn -0.7660 0.0000 0.6428
vn -0.5000 0.0000 0.8660
vn -0.1737 0.0000 0.9848
vn 0.0000 0.0000 1.0000
vn 0.1736 0.0000 0.9848
vn 0.7660 0.0000 0.6428
vn 0.9397 0.0000 0.3420
vn 0.0000 -1.0000 -0.0000
vn -0.0000 -1.0000 -0.0000
vn 0.0000 -1.0000 0.0000
vn -0.0000 1.0000 0.0000
vn -0.0000 -1.0000 0.0000
vn 0.6652 -0.1891 0.7223
vn -0.6953 0.1939 0.6920
vn -0.7387 0.1525 0.6566
vn 0.6467 -0.1383 0.7501
vn 0.6652 -0.1891 -0.7223
vn 0.6467 -0.1383 -0.7501
vn -0.7387 0.1525 -0.6566
vn -0.6953 0.1939 -0.6920
vn -0.1411 0.7197 0.6798
vn 0.1303 -0.6644 0.7360
vn 0.0483 -0.6899 0.7223
vn -0.0486 0.7208 0.6915
vn -0.1411 0.7197 -0.6798
vn -0.0486 0.7208 -0.6915
vn 0.0483 -0.6899 -0.7223
vn 0.1303 -0.6644 -0.7360
vn 0.4275 -0.5410 0.7243
vn 0.5191 -0.4294 0.7390
vn 0.5191 -0.4294 -0.7390
vn 0.4275 -0.5410 -0.7243
vn -0.4604 0.5615 0.6875
vn -0.5730 0.4564 0.6807
vn -0.5730 0.4564 -0.6807
vn -0.4604 0.5615 -0.6875
vn 0.6141 -0.2959 0.7317
vn 0.6141 -0.2959 -0.7317
vn 0.2963 -0.6044 0.7395
vn -0.3257 0.6597 0.6773
vn -0.3257 0.6597 -0.6773
vn 0.2963 -0.6044 -0.7395
vn -0.6581 0.3143 0.6842
vn -0.6581 0.3143 -0.6842
vn 0.7223 -0.1891 -0.6652
vn 0.6920 0.1939 0.6953
vn 0.6566 0.1525 0.7387
vn 0.7501 -0.1383 -0.6467
vn -0.7223 -0.1891 -0.6652
vn -0.7501 -0.1383 -0.6467
vn -0.6566 0.1525 0.7387
vn -0.6920 0.1939 0.6953
vn 0.6798 0.7197 0.1411
vn 0.7360 -0.6644 -0.1303
vn 0.7223 -0.6899 -0.0483
vn 0.6915 0.7208 0.0486
vn -0.6798 0.7197 0.1411
vn -0.6915 0.7208 0.0486
vn -0.7223 -0.6899 -0.0483
vn -0.7360 -0.6644 -0.1303
vn 0.7243 -0.5410 -0.4275
vn 0.7390 -0.4294 -0.5191
vn -0.7390 -0.4294 -0.5191
vn -0.7243 -0.5410 -0.4275
vn 0.6876 0.5615 0.4604
vn 0.6807 0.4564 0.5730
vn -0.6807 0.4564 0.5730
vn -0.6876 0.5615 0.4604
vn 0.7317 -0.2959 -0.6141
vn -0.7317 -0.2959 -0.6141
vn 0.7395 -0.6044 -0.2963
vn 0.6773 0.6597 0.3257
vn -0.6773 0.6597 0.3257
vn -0.7395 -0.6044 -0.2963
vn 0.6842 0.3143 0.6581
vn -0.6842 0.3143 0.6581
vn -0.6652 -0.1891 -0.7223
vn 0.6953 0.1939 -0.6920
vn 0.7387 0.1525 -0.6566
vn -0.6467 -0.1383 -0.7501
vn -0.6652 -0.1891 0.7223
vn -0.6467 -0.1383 0.7501
vn 0.7387 0.1525 0.6566
vn 0.6953 0.1939 0.6920
vn 0.1411 0.7197 -0.6798
vn -0.1303 -0.6644 -0.7360
vn -0.0483 -0.6899 -0.7223
vn 0.0486 0.7208 -0.6915
vn 0.1411 0.7197 0.6798
vn 0.0486 0.7208 0.6915
vn -0.0483 -0.6899 0.7223
vn -0.1303 -0.6644 0.7360
vn -0.4275 -0.5410 -0.7243
vn -0.5191 -0.4294 -0.7390
vn -0.5191 -0.4294 0.7390
vn -0.4275 -0.5410 0.7243
vn 0.4604 0.5615 -0.6875
vn 0.5730 0.4564 -0.6807
vn 0.5730 0.4564 0.6807
vn 0.4604 0.5615 0.6875
vn -0.6141 -0.2959 -0.7317
vn -0.6141 -0.2959 0.7317
vn -0.2963 -0.6044 -0.7395
vn 0.3257 0.6597 -0.6773
vn 0.3257 0.6597 0.6773
vn -0.2963 -0.6044 0.7395
vn 0.6581 0.3143 -0.6842
vn 0.6581 0.3143 0.6842
vn -0.7223 -0.1891 0.6652
vn -0.6920 0.1939 -0.6953
vn -0.6566 0.1525 -0.7387
vn -0.7501 -0.1383 0.6467
vn 0.7223 -0.1891 0.6652
vn 0.7501 -0.1383 0.6467
vn 0.6566 0.1525 -0.7387
vn 0.6920 0.1939 -0.6953
vn -0.6798 0.7197 -0.1411
vn -0.7360 -0.6644 0.1303
vn -0.7223 -0.6899 0.0483
vn -0.6915 0.7208 -0.0486
vn 0.6798 0.7197 -0.1411
vn 0.6915 0.7208 -0.0486
vn 0.7223 -0.6899 0.0483
vn 0.7360 -0.6644 0.1303
vn -0.7243 -0.5410 0.4275
vn -0.7390 -0.4294 0.5191
vn 0.7390 -0.4294 0.5191
vn 0.7243 -0.5410 0.4275
vn -0.6876 0.5615 -0.4604
vn -0.6807 0.4564 -0.5730
vn 0.6807 0.4564 -0.5730
vn 0.6876 0.5615 -0.4604
vn -0.7317 -0.2959 0.6141
vn 0.7317 -0.2959 0.6141
vn -0.7395 -0.6044 0.2963
vn -0.6773 0.6597 -0.3257
vn 0.6773 0.6597 -0.3257
vn 0.7395 -0.6044 0.2963
vn -0.6842 0.3143 -0.6581
vn 0.6842 0.3143 -0.6581
# 160 vertex normals

vt 0.7084 0.7849 0.0000
vt 0.7084 0.8189 0.0000
vt 0.0227 0.8189 0.0000
vt 0.0227 0.7849 0.0000
vt 0.0227 0.9890 0.0000
vt 0.0227 0.9550 0.0000
vt 0.7084 0.9550 0.0000
vt 0.7084 0.9890 0.0000
vt 0.7084 0.9210 0.0000
vt 0.0227 0.9210 0.0000
vt 0.7084 0.8870 0.0000
vt 0.0227 0.8870 0.0000
vt 0.7084 0.8529 0.0000
vt 0.0227 0.8529 0.0000
vt 0.7673 0.9210 0.0000
vt 0.7379 0.9380 0.0000
vt 0.7379 0.8700 0.0000
vt 0.7673 0.8870 0.0000
vt 0.6972 0.5237 0.0000
vt 0.7410 0.7719 0.0000
vt 0.7791 0.7720 0.0000
vt 0.7329 0.5109 0.0000
vt 0.5712 0.3060 0.0000
vt 0.6000 0.2815 0.0000
vt 0.3778 0.1442 0.0000
vt 0.3955 0.1111 0.0000
vt 0.1439 0.0589 0.0000
vt 0.1539 0.0223 0.0000
vt 0.0163 0.0193 0.0000
vt 0.0163 0.0581 0.0000
vt 0.3777 0.1441 0.0000
vt 0.1435 0.0588 0.0000
vt 0.1538 0.0223 0.0000
vt 0.3953 0.1110 0.0000
vt 0.5714 0.3062 0.0000
vt 0.6001 0.2815 0.0000
vt 0.6971 0.5236 0.0000
vt 0.7324 0.5100 0.0000
vt 0.7791 0.7718 0.0000
vt 0.3779 0.1442 0.0000
vt 0.3954 0.1111 0.0000
vt 0.0164 0.0192 0.0000
vt 0.0164 0.0580 0.0000
vt 0.1438 0.0588 0.0000
vt 0.1537 0.0222 0.0000
vt 0.7325 0.5101 0.0000
vt 0.5713 0.3061 0.0000
vt 0.1432 0.0586 0.0000
vt 0.0163 0.7719 0.0000
vt 0.7411 0.7719 0.0000
vt 0.6971 0.5237 0.0000
vt 0.0163 0.0580 0.0000
vt 0.1432 0.0585 0.0000
vt 0.0163 0.0192 0.0000
vt 0.0163 0.0579 0.0000
vt 0.9028 0.3289 0.0000
vt 0.8771 0.3314 0.0000
vt 0.8771 0.0324 0.0000
vt 0.9002 0.0350 0.0000
vt 0.8276 0.3282 0.0000
vt 0.8304 0.0367 0.0000
vt 0.8535 0.0324 0.0000
vt 0.8535 0.3316 0.0000
vt 0.8040 0.3274 0.0000
vt 0.8067 0.0381 0.0000
vt 0.8765 0.6612 0.0000
vt 0.9029 0.6686 0.0000
vt 0.9006 0.9788 0.0000
vt 0.8765 0.9798 0.0000
vt 0.8535 0.6612 0.0000
vt 0.8535 0.9798 0.0000
vt 0.8274 0.9756 0.0000
vt 0.8274 0.6682 0.0000
vt 0.8019 0.9723 0.0000
vt 0.8028 0.6649 0.0000
vt 0.8026 0.5303 0.0000
vt 0.8039 0.4637 0.0000
vt 0.8274 0.4647 0.0000
vt 0.8262 0.5307 0.0000
vt 0.8771 0.5268 0.0000
vt 0.8771 0.4591 0.0000
vt 0.9031 0.4644 0.0000
vt 0.9044 0.5306 0.0000
vt 0.8535 0.4594 0.0000
vt 0.8535 0.5269 0.0000
vt 0.8035 0.3929 0.0000
vt 0.8271 0.3935 0.0000
vt 0.9041 0.5988 0.0000
vt 0.8771 0.5979 0.0000
vt 0.8535 0.5979 0.0000
vt 0.8265 0.5991 0.0000
vt 0.8028 0.5994 0.0000
vt 0.9035 0.3935 0.0000
vt 0.8771 0.3940 0.0000
vt 0.8535 0.3935 0.0000
# 95 texture coords

g Teeter03
usemtl Standard_1
s 8
f 1/1/1 2/2/2 3/3/2 4/4/1 
f 4/5/1 5/6/3 6/7/3 
f 6/7/3 1/8/1 4/5/1 
f 7/9/4 6/7/3 5/6/3 8/10/5 
f 9/11/6 7/9/4 8/10/5 10/12/6 
f 11/13/7 9/11/6 10/12/6 12/14/8 
f 2/2/2 11/13/7 12/14/8 3/3/2 
s 1
f 1/15/9 6/16/9 7/9/9 
f 7/9/9 9/11/9 11/17/9 
f 1/15/9 7/9/9 11/17/9 
f 2/18/10 1/15/9 11/17/9 
f 13/19/11 14/20/2 15/21/2 16/22/11 
f 17/23/12 13/19/11 16/22/11 18/24/12 
f 19/25/1 17/23/12 18/24/12 20/26/13 
f 21/27/14 19/25/1 20/26/13 22/28/14 
f 21/27/14 22/28/14 23/29/15 24/30/16 
f 25/31/3 26/32/17 27/33/17 28/34/3 
f 29/35/18 25/31/3 28/34/3 30/36/18 
f 31/37/19 29/35/18 30/36/18 32/38/19 
f 33/20/4 31/37/19 32/38/19 34/39/4 
f 34/21/4 35/22/20 36/19/20 
f 36/19/20 33/20/4 34/21/4 
f 37/23/21 36/19/20 35/22/20 38/24/21 
f 39/40/22 37/23/21 38/24/21 40/41/22 
f 41/32/23 39/40/22 40/41/22 42/33/23 
f 41/32/23 42/33/23 43/42/24 44/43/24 
f 45/31/8 46/44/25 47/45/25 48/34/8 
f 49/35/26 45/31/8 48/34/8 50/36/26 
f 51/37/27 49/35/26 50/36/26 52/46/27 
f 52/46/27 15/39/2 14/20/2 
f 14/20/2 51/37/27 52/46/27 
s 2
f 50/47/28 48/40/29 47/48/28 
f 47/48/28 43/30/28 53/49/28 
f 50/47/28 47/48/28 53/49/28 
f 50/47/28 53/49/28 15/50/28 
f 52/51/30 50/47/28 15/50/28 
f 46/44/31 45/31/9 49/35/9 51/37/31 
f 51/37/31 14/20/31 54/49/31 46/44/31 
f 46/44/31 54/49/31 44/52/31 
f 34/50/28 32/37/28 30/47/28 
f 30/47/28 28/25/28 27/53/28 
f 27/53/28 23/52/28 53/49/28 
f 30/47/28 27/53/28 53/49/28 
f 34/50/28 30/47/28 53/49/28 
f 19/25/31 54/49/31 13/19/31 17/23/10 
f 24/30/31 54/49/31 19/25/31 21/27/31 
f 14/20/31 13/19/31 54/49/31 
s 1
f 27/33/17 26/32/17 24/43/16 
f 24/43/16 23/54/15 27/33/17 
f 47/45/25 46/44/25 44/52/24 
f 44/52/24 43/54/24 47/45/25 
s 2
f 42/53/28 40/25/28 38/47/28 
f 38/47/28 35/37/28 34/50/28 
f 38/47/28 34/50/28 53/49/28 
f 42/53/28 38/47/28 53/49/28 
f 43/55/28 42/53/28 53/49/28 
f 33/20/31 36/19/31 37/23/31 
f 37/23/31 39/40/31 41/32/31 44/43/31 
f 37/23/31 44/43/31 33/20/31 
f 54/49/31 33/20/31 44/43/31 
f 22/53/28 20/40/32 18/47/28 
f 18/47/28 16/51/28 15/50/28 
f 18/47/28 15/50/28 53/49/28 
f 22/53/28 18/47/28 53/49/28 
f 23/52/28 22/53/28 53/49/28 
f 29/35/31 54/49/31 26/32/31 25/31/9 
f 33/20/31 54/49/31 29/35/31 31/37/31 
f 24/43/31 26/32/31 54/49/31 
s 1
f 55/56/33 56/57/34 57/58/35 58/59/36 
f 59/60/37 60/61/38 61/62/39 62/63/40 
f 62/63/40 61/62/39 57/58/35 56/57/34 
f 55/64/33 58/65/36 60/61/38 
f 60/61/38 59/60/37 55/64/33 
f 63/66/41 64/67/42 65/68/43 66/69/44 
f 67/70/45 68/71/46 69/72/47 70/73/48 
f 65/74/43 64/75/42 70/73/48 
f 70/73/48 69/72/47 65/74/43 
f 68/71/46 67/70/45 63/66/41 66/69/44 
f 71/76/49 72/77/50 73/78/51 74/79/52 
f 75/80/53 76/81/54 72/82/50 
f 72/82/50 71/83/49 75/80/53 
f 77/84/55 78/85/56 74/79/52 73/78/51 
f 76/81/54 75/80/53 78/85/56 77/84/55 
f 79/86/57 55/64/33 59/60/37 80/87/58 
f 81/88/59 64/67/42 63/66/41 82/89/60 
f 83/90/61 67/70/45 70/73/48 84/91/62 
f 82/89/60 63/66/41 67/70/45 83/90/61 
f 84/91/62 70/73/48 64/75/42 
f 64/75/42 81/92/59 84/91/62 
f 55/56/33 79/93/57 85/94/63 56/57/34 
f 62/63/40 86/95/64 80/87/58 59/60/37 
f 56/57/34 85/94/63 86/95/64 62/63/40 
f 74/79/52 84/91/62 81/92/59 
f 81/92/59 71/76/49 74/79/52 
f 76/81/54 85/94/63 79/93/57 
f 79/93/57 72/82/50 76/81/54 
f 86/95/64 77/84/55 73/78/51 80/87/58 
f 85/94/63 76/81/54 77/84/55 86/95/64 
f 72/77/50 79/86/57 80/87/58 73/78/51 
f 82/89/60 75/80/53 71/83/49 
f 71/83/49 81/88/59 82/89/60 
f 78/85/56 83/90/61 84/91/62 74/79/52 
f 75/80/53 82/89/60 83/90/61 78/85/56 
f 87/56/65 88/57/66 89/58/67 90/59/68 
f 91/60/69 92/61/70 93/62/71 94/63/72 
f 94/63/72 93/62/71 89/58/67 88/57/66 
f 87/64/65 90/65/68 92/61/70 
f 92/61/70 91/60/69 87/64/65 
f 95/66/73 96/67/74 97/68/75 98/69/76 
f 99/70/77 100/71/78 101/72/79 102/73/80 
f 97/74/75 96/75/74 102/73/80 
f 102/73/80 101/72/79 97/74/75 
f 100/71/78 99/70/77 95/66/73 98/69/76 
f 103/76/81 104/77/82 105/78/83 106/79/84 
f 107/80/85 108/81/86 104/82/82 
f 104/82/82 103/83/81 107/80/85 
f 109/84/87 110/85/88 106/79/84 105/78/83 
f 108/81/86 107/80/85 110/85/88 109/84/87 
f 111/86/89 87/64/65 91/60/69 112/87/90 
f 113/88/91 96/67/74 95/66/73 114/89/92 
f 115/90/93 99/70/77 102/73/80 116/91/94 
f 114/89/92 95/66/73 99/70/77 115/90/93 
f 116/91/94 102/73/80 96/75/74 
f 96/75/74 113/92/91 116/91/94 
f 87/56/65 111/93/89 117/94/95 88/57/66 
f 94/63/72 118/95/96 112/87/90 91/60/69 
f 88/57/66 117/94/95 118/95/96 94/63/72 
f 106/79/84 116/91/94 113/92/91 
f 113/92/91 103/76/81 106/79/84 
f 108/81/86 117/94/95 111/93/89 
f 111/93/89 104/82/82 108/81/86 
f 118/95/96 109/84/87 105/78/83 112/87/90 
f 117/94/95 108/81/86 109/84/87 118/95/96 
f 104/77/82 111/86/89 112/87/90 105/78/83 
f 114/89/92 107/80/85 103/83/81 
f 103/83/81 113/88/91 114/89/92 
f 110/85/88 115/90/93 116/91/94 106/79/84 
f 107/80/85 114/89/92 115/90/93 110/85/88 
f 119/56/97 120/57/98 121/58/99 122/59/100 
f 123/60/101 124/61/102 125/62/103 126/63/104 
f 126/63/104 125/62/103 121/58/99 120/57/98 
f 119/64/97 122/65/100 124/61/102 
f 124/61/102 123/60/101 119/64/97 
f 127/66/105 128/67/106 129/68/107 130/69/108 
f 131/70/109 132/71/110 133/72/111 134/73/112 
f 129/74/107 128/75/106 134/73/112 
f 134/73/112 133/72/111 129/74/107 
f 132/71/110 131/70/109 127/66/105 130/69/108 
f 135/76/113 136/77/114 137/78/115 138/79/116 
f 139/80/117 140/81/118 136/82/114 
f 136/82/114 135/83/113 139/80/117 
f 141/84/119 142/85/120 138/79/116 137/78/115 
f 140/81/118 139/80/117 142/85/120 141/84/119 
f 143/86/121 119/64/97 123/60/101 144/87/122 
f 145/88/123 128/67/106 127/66/105 146/89/124 
f 147/90/125 131/70/109 134/73/112 148/91/126 
f 146/89/124 127/66/105 131/70/109 147/90/125 
f 148/91/126 134/73/112 128/75/106 
f 128/75/106 145/92/123 148/91/126 
f 119/56/97 143/93/121 149/94/127 120/57/98 
f 126/63/104 150/95/128 144/87/122 123/60/101 
f 120/57/98 149/94/127 150/95/128 126/63/104 
f 138/79/116 148/91/126 145/92/123 
f 145/92/123 135/76/113 138/79/116 
f 140/81/118 149/94/127 143/93/121 
f 143/93/121 136/82/114 140/81/118 
f 150/95/128 141/84/119 137/78/115 144/87/122 
f 149/94/127 140/81/118 141/84/119 150/95/128 
f 136/77/114 143/86/121 144/87/122 137/78/115 
f 146/89/124 139/80/117 135/83/113 
f 135/83/113 145/88/123 146/89/124 
f 142/85/120 147/90/125 148/91/126 138/79/116 
f 139/80/117 146/89/124 147/90/125 142/85/120 
f 151/56/129 152/57/130 153/58/131 154/59/132 
f 155/60/133 156/61/134 157/62/135 158/63/136 
f 158/63/136 157/62/135 153/58/131 152/57/130 
f 151/64/129 154/65/132 156/61/134 
f 156/61/134 155/60/133 151/64/129 
f 159/66/137 160/67/138 161/68/139 162/69/140 
f 163/70/141 164/71/142 165/72/143 166/73/144 
f 161/74/139 160/75/138 166/73/144 
f 166/73/144 165/72/143 161/74/139 
f 164/71/142 163/70/141 159/66/137 162/69/140 
f 167/76/145 168/77/146 169/78/147 170/79/148 
f 171/80/149 172/81/150 168/82/146 
f 168/82/146 167/83/145 171/80/149 
f 173/84/151 174/85/152 170/79/148 169/78/147 
f 172/81/150 171/80/149 174/85/152 173/84/151 
f 175/86/153 151/64/129 155/60/133 176/87/154 
f 177/88/155 160/67/138 159/66/137 178/89/156 
f 179/90/157 163/70/141 166/73/144 180/91/158 
f 178/89/156 159/66/137 163/70/141 179/90/157 
f 180/91/158 166/73/144 160/75/138 
f 160/75/138 177/92/155 180/91/158 
f 151/56/129 175/93/153 181/94/159 152/57/130 
f 158/63/136 182/95/160 176/87/154 155/60/133 
f 152/57/130 181/94/159 182/95/160 158/63/136 
f 170/79/148 180/91/158 177/92/155 
f 177/92/155 167/76/145 170/79/148 
f 172/81/150 181/94/159 175/93/153 
f 175/93/153 168/82/146 172/81/150 
f 182/95/160 173/84/151 169/78/147 176/87/154 
f 181/94/159 172/81/150 173/84/151 182/95/160 
f 168/77/146 175/86/153 176/87/154 169/78/147 
f 178/89/156 171/80/149 167/83/145 
f 167/83/145 177/88/155 178/89/156 
f 174/85/152 179/90/157 180/91/158 170/79/148 
f 171/80/149 178/89/156 179/90/157 174/85/152 
# 112 polygons - 96 triangles

