# Blender v3.1.2 OBJ File: ''
# www.blender.org
mtllib pista.mtl
o Plane
v -3.000000 0.000000 -1.000000
v 3.000000 0.000000 -1.000000
v -3.000000 0.000000 -3.000000
v 3.000000 0.000000 -3.000000
v -3.000000 0.000000 3.000000
v 3.000000 0.000000 3.000000
v -3.000000 0.000000 1.000000
v 3.000000 0.000000 1.000000
v -4.000000 0.000000 0.021518
v -3.980785 0.000000 0.216608
v -3.923880 0.000000 0.404201
v -3.831470 0.000000 0.577088
v -3.707107 0.000000 0.728624
v -3.555570 0.000000 0.852987
v -3.382683 0.000000 0.945397
v -3.195090 0.000000 1.002303
v -3.000000 0.000000 1.021518
v -3.000000 0.000000 3.021518
v -3.585271 0.000000 2.963873
v -4.148050 0.000000 2.793156
v -4.666711 0.000000 2.515926
v -5.121320 0.000000 2.142838
v -5.494409 0.000000 1.688228
v -5.771638 0.000000 1.169568
v -5.942356 0.000000 0.606788
v -6.000000 0.000000 0.021518
v 3.021517 0.000000 1.021518
v 3.021518 0.000000 3.021518
v 4.002303 0.000000 -0.195090
v 3.945397 0.000000 -0.382683
v 3.852987 0.000000 -0.555570
v 3.728624 0.000000 -0.707107
v 3.577088 0.000000 -0.831469
v 3.404201 0.000000 -0.923880
v 3.216608 0.000000 -0.980785
v 3.021518 0.000000 -1.000000
v 3.021518 0.000000 -3.000000
v 3.606789 0.000000 -2.942356
v 4.169568 0.000000 -2.771638
v 4.688229 0.000000 -2.494409
v 5.142838 0.000000 -2.121320
v 5.515926 0.000000 -1.666711
v 5.793156 0.000000 -1.148050
v 5.963873 0.000000 -0.585271
v 6.021518 0.000000 0.000000
v -3.000000 0.000000 -3.000000
v -3.585271 0.000000 -2.942356
v -4.148050 0.000000 -2.771638
v -4.666711 0.000000 -2.494409
v -5.121320 0.000000 -2.121320
v -5.494409 0.000000 -1.666711
v -5.771638 0.000000 -1.148050
v -5.942356 0.000000 -0.585271
v -6.000000 0.000000 0.000000
v 3.606789 0.000000 2.963874
v 4.169568 0.000000 2.793157
v 4.688229 0.000000 2.515927
v 5.142838 0.000000 2.142838
v 5.515926 0.000000 1.688229
v 5.793156 0.000000 1.169569
v 5.963873 0.000000 0.606789
v 6.021517 0.000000 0.021518
v 4.021517 0.000000 0.021518
v 4.002303 0.000000 0.216609
v 3.945397 0.000000 0.404202
v 3.852987 0.000000 0.577089
v 3.728624 0.000000 0.728625
v 3.577087 0.000000 0.852988
v 3.404201 0.000000 0.945398
v 3.216608 0.000000 1.002304
v 4.021518 0.000000 0.000000
v -4.000000 0.000000 0.000000
v -3.980785 0.000000 -0.195090
v -3.923880 0.000000 -0.382683
v -3.831470 0.000000 -0.555570
v -3.707107 0.000000 -0.707107
v -3.555570 0.000000 -0.831470
v -3.382683 0.000000 -0.923880
v -3.195090 0.000000 -0.980785
v -3.000000 0.000000 -1.000000
vt 0.434142 0.247955
vt 0.434142 0.724094
vt 0.275429 0.724094
vt 0.275429 0.247955
vt 0.756168 0.249697
vt 0.756168 0.725836
vt 0.597456 0.725836
vt 0.597456 0.249697
vt 0.517350 0.967280
vt 0.517350 0.808567
vt 0.532832 0.807043
vt 0.563796 0.962706
vt 0.547719 0.802527
vt 0.608456 0.949158
vt 0.561439 0.795193
vt 0.649615 0.927158
vt 0.573464 0.785325
vt 0.685691 0.897551
vt 0.583333 0.773299
vt 0.715298 0.861475
vt 0.590666 0.759579
vt 0.737298 0.820316
vt 0.595182 0.744693
vt 0.750845 0.775656
vt 0.596707 0.729211
vt 0.755420 0.729211
vt 0.758414 0.248302
vt 0.599701 0.248302
vt 0.598177 0.232820
vt 0.753840 0.201857
vt 0.593661 0.217934
vt 0.740292 0.157197
vt 0.586327 0.204214
vt 0.718292 0.116038
vt 0.576458 0.192189
vt 0.688685 0.079962
vt 0.564433 0.182319
vt 0.652609 0.050355
vt 0.550713 0.174986
vt 0.611450 0.028355
vt 0.535827 0.170470
vt 0.566790 0.014807
vt 0.520345 0.168945
vt 0.520345 0.010233
vt 0.513579 0.009516
vt 0.513579 0.168228
vt 0.498097 0.169753
vt 0.467134 0.014090
vt 0.483210 0.174269
vt 0.422473 0.027638
vt 0.469491 0.181602
vt 0.381314 0.049638
vt 0.457465 0.191471
vt 0.345238 0.079245
vt 0.447596 0.203497
vt 0.315631 0.115321
vt 0.440263 0.217216
vt 0.293631 0.156480
vt 0.435747 0.232103
vt 0.280084 0.201140
vt 0.434222 0.247585
vt 0.275509 0.247585
vt 0.275401 0.730941
vt 0.434114 0.730941
vt 0.435638 0.746423
vt 0.279975 0.777386
vt 0.440154 0.761310
vt 0.293523 0.822046
vt 0.447488 0.775029
vt 0.315523 0.863205
vt 0.457357 0.787055
vt 0.345130 0.899282
vt 0.469382 0.796924
vt 0.381206 0.928888
vt 0.483102 0.804257
vt 0.422365 0.950888
vt 0.497988 0.808773
vt 0.467025 0.964436
vt 0.513470 0.810298
vt 0.513470 0.969010
vn 0.0000 1.0000 0.0000
vn 0.0000 -1.0000 0.0000
g Plane_Plane_Material.001
usemtl Material.001
s off
f 1/1/1 2/2/1 4/3/1 3/4/1
f 5/5/1 6/6/1 8/7/1 7/8/1
f 46/9/2 80/10/2 79/11/2 47/12/2
f 47/12/2 79/11/2 78/13/2 48/14/2
f 48/14/2 78/13/2 77/15/2 49/16/2
f 49/16/2 77/15/2 76/17/2 50/18/2
f 50/18/2 76/17/2 75/19/2 51/20/2
f 51/20/2 75/19/2 74/21/2 52/22/2
f 52/22/2 74/21/2 73/23/2 53/24/2
f 53/24/2 73/23/2 72/25/2 54/26/2
f 45/27/2 71/28/2 29/29/2 44/30/2
f 44/30/2 29/29/2 30/31/2 43/32/2
f 43/32/2 30/31/2 31/33/2 42/34/2
f 42/34/2 31/33/2 32/35/2 41/36/2
f 41/36/2 32/35/2 33/37/2 40/38/2
f 40/38/2 33/37/2 34/39/2 39/40/2
f 39/40/2 34/39/2 35/41/2 38/42/2
f 38/42/2 35/41/2 36/43/2 37/44/2
f 28/45/2 27/46/2 70/47/2 55/48/2
f 55/48/2 70/47/2 69/49/2 56/50/2
f 56/50/2 69/49/2 68/51/2 57/52/2
f 57/52/2 68/51/2 67/53/2 58/54/2
f 58/54/2 67/53/2 66/55/2 59/56/2
f 59/56/2 66/55/2 65/57/2 60/58/2
f 60/58/2 65/57/2 64/59/2 61/60/2
f 61/60/2 64/59/2 63/61/2 62/62/2
f 26/63/2 9/64/2 10/65/2 25/66/2
f 25/66/2 10/65/2 11/67/2 24/68/2
f 24/68/2 11/67/2 12/69/2 23/70/2
f 23/70/2 12/69/2 13/71/2 22/72/2
f 22/72/2 13/71/2 14/73/2 21/74/2
f 21/74/2 14/73/2 15/75/2 20/76/2
f 20/76/2 15/75/2 16/77/2 19/78/2
f 19/78/2 16/77/2 17/79/2 18/80/2
