# Blender v3.1.2 OBJ File: 'Ptero.blend'
# www.blender.org
mtllib AlaDer.mtl
o AlaDerecha_Cube.006
v -1.519108 0.720212 0.060327
v -1.519108 0.720212 -0.060327
v -1.505111 0.863589 -0.012330
v -1.505111 0.863589 0.012330
v -0.000065 -0.000668 0.028054
v -0.000065 -0.000668 -0.028054
v -0.031912 -0.326885 -0.137258
v -0.031912 -0.326885 0.137258
v -3.466628 1.055079 -0.012330
v -3.480625 0.911702 -0.060327
v -3.466628 1.055079 0.012330
v -3.480625 0.911702 0.060327
v -4.384949 0.765580 0.000000
v -1.519108 -0.390831 -0.060327
v -0.031912 -1.437928 -0.137258
v -3.208064 -0.046454 -0.239540
vt 0.398320 0.031665
vt 0.416356 0.395119
vt 0.385494 0.389865
vt 0.335360 0.008069
vt 0.440438 0.763216
vt 0.412387 0.770760
vt 0.410905 0.031129
vt 0.422939 0.394755
vt 0.361508 0.392637
vt 0.282695 0.017387
vt 0.477634 0.000097
vt 0.451797 0.387018
vt 0.447962 0.970464
vt 0.387904 0.774827
vt 0.446353 0.762914
vt 0.477634 0.768060
vt 0.120714 0.839586
vt 0.282502 0.710762
vt 0.218101 0.999903
vt 0.000097 0.455380
vt 0.208153 0.364559
vt 0.074446 0.090918
vt 0.282502 0.000097
vn 0.1619 0.2990 0.9404
vn 0.0307 0.3146 0.9487
vn 0.4980 0.8672 0.0000
vn -0.5757 -0.8177 0.0000
vn 0.1619 0.2990 -0.9404
vn 0.1595 -0.9872 0.0000
vn -0.0972 -0.9953 0.0000
vn 0.0972 0.9953 0.0000
vn 0.0307 0.3146 -0.9487
vn -0.3007 0.9537 0.0000
vn -0.1152 0.3254 0.9385
vn -0.1152 0.3254 -0.9385
vn -0.0911 0.1580 -0.9832
vn 0.0626 0.0943 -0.9936
vn -0.0517 0.0000 -0.9987
g AlaDerecha_Cube.006_Material.001
usemtl Material.001
s off
f 5/1/1 4/2/1 1/3/1 8/4/1
f 4/2/2 11/5/2 12/6/2 1/3/2
f 6/7/3 3/8/3 4/2/3 5/1/3
f 8/4/4 1/3/4 2/9/4 7/10/4
f 7/11/5 2/12/5 3/8/5 6/7/5
f 12/6/6 13/13/6 10/14/6
f 1/3/7 12/6/7 10/14/7 2/9/7
f 3/8/8 9/15/8 11/5/8 4/2/8
f 2/12/9 10/16/9 9/15/9 3/8/9
f 9/15/10 13/13/10 11/5/10
f 11/5/11 13/13/11 12/6/11
f 10/16/12 13/13/12 9/15/12
f 10/17/13 16/18/13 13/19/13
f 2/20/14 14/21/14 16/18/14 10/17/14
f 7/22/15 15/23/15 14/21/15 2/20/15
