# Blender v3.1.2 OBJ File: 'Ptero.blend'
# www.blender.org
mtllib Cabeza.mtl
o Cabeza_Cube.003
v 0.231034 0.349116 -0.033127
v 0.000000 0.132454 1.245612
v 0.170657 0.715837 -0.381595
v 0.095819 0.135710 1.239413
v 0.135824 0.039975 0.058983
v 0.231034 0.288634 0.250804
v 0.170657 0.466320 0.382866
v 0.231034 0.302266 0.166655
v 0.135824 0.048031 0.389316
v 0.000000 0.156319 1.228813
v 0.000000 0.954516 -0.729737
v 0.102531 0.153626 1.220197
v 0.000000 0.001248 0.005374
v 0.135824 0.059712 0.160414
v 0.000000 0.494960 0.408668
v 0.135824 0.059712 0.250675
v 0.000000 -0.015425 0.340937
v 0.000000 -0.019242 0.250675
v 0.000000 -0.019242 0.160414
v 0.000000 0.885966 -0.459110
v 0.000000 0.683915 0.106837
v 0.170657 0.593124 0.152133
v 0.170657 0.681645 -0.108895
v 0.189234 0.138482 0.453046
v 0.231034 0.273992 0.441259
v 0.000000 0.324858 0.548257
v 0.000000 0.149129 0.480751
v 0.000000 0.116757 -0.025518
v 0.000000 0.362717 -0.116657
v 0.189234 0.116582 0.007269
v 0.189234 0.116856 0.160931
v 0.189234 0.116014 0.250675
v 0.000000 0.282152 0.825187
v 0.171341 0.134170 0.763999
v 0.205955 0.243763 0.742423
v 0.000000 0.139600 0.788135
v -0.231034 0.349116 -0.033127
v -0.170657 0.715837 -0.381595
v -0.095819 0.135710 1.239413
v -0.135824 0.039975 0.058983
v -0.231034 0.288634 0.250804
v -0.170657 0.466320 0.382866
v -0.231034 0.302266 0.166655
v -0.135824 0.048031 0.389316
v -0.102531 0.153626 1.220197
v -0.135824 0.059712 0.160414
v -0.135824 0.059712 0.250675
v -0.170657 0.593124 0.152133
v -0.170657 0.681645 -0.108895
v -0.189234 0.138482 0.453046
v -0.231034 0.273992 0.441259
v -0.189234 0.116582 0.007269
v -0.189234 0.116856 0.160931
v -0.189234 0.116014 0.250675
v -0.171341 0.134170 0.763999
v -0.205955 0.243763 0.742423
vt 0.207585 0.519383
vt 0.234715 0.527329
vt 0.245143 0.496246
vt 0.217374 0.487368
vt 0.194002 0.552719
vt 0.219735 0.574960
vt 0.299528 0.551794
vt 0.307803 0.520513
vt 0.289830 0.260678
vt 0.341399 0.312567
vt 0.394055 0.181479
vt 0.388882 0.156379
vt 0.384343 0.704911
vt 0.419506 0.858646
vt 0.465887 0.640422
vt 0.397989 0.604206
vt 0.354306 0.794247
vt 0.381814 0.960934
vt 0.282305 0.628188
vt 0.140363 0.566472
vt 0.149740 0.504058
vt 0.159391 0.469841
vt 0.641191 0.178587
vt 0.616949 0.255115
vt 0.466145 0.255115
vt 0.468845 0.218239
vt 0.231033 0.438607
vt 0.278455 0.421909
vt 0.220543 0.365470
vt 0.170871 0.436068
vt 0.398798 0.186248
vt 0.400391 0.156413
vt 0.371703 0.336944
vt 0.330347 0.448999
vt 0.161809 0.610030
vt 0.216294 0.693332
vt 0.465887 0.498891
vt 0.395904 0.502599
vt 0.749305 0.156379
vt 0.814325 0.192771
vt 0.813327 0.255115
vt 0.726618 0.255115
vt 0.207345 0.519383
vt 0.217133 0.487369
vt 0.244903 0.496246
vt 0.234475 0.527329
vt 0.193762 0.552720
vt 0.219494 0.574960
vt 0.307563 0.520514
vt 0.299288 0.551794
vt 0.289589 0.260678
vt 0.388641 0.156379
vt 0.393814 0.181479
vt 0.341158 0.312567
vt 0.384103 0.704911
vt 0.397749 0.604206
vt 0.465647 0.640422
vt 0.419266 0.858646
vt 0.354066 0.794247
vt 0.381574 0.960934
vt 0.282065 0.628189
vt 0.140123 0.566472
vt 0.149499 0.504059
vt 0.159151 0.469841
vt 0.641191 0.331643
vt 0.468845 0.291991
vt 0.230793 0.438607
vt 0.170631 0.436069
vt 0.220302 0.365470
vt 0.278215 0.421910
vt 0.400151 0.156413
vt 0.398557 0.186248
vt 0.371463 0.336945
vt 0.330106 0.449000
vt 0.161568 0.610030
vt 0.216054 0.693332
vt 0.395663 0.502600
vt 0.465647 0.498891
vt 0.749305 0.353852
vt 0.814325 0.317460
vn 0.7281 -0.6855 -0.0032
vn 0.7894 -0.6120 0.0480
vn 0.9737 -0.2270 -0.0189
vn -0.0089 -0.9999 -0.0067
vn 0.3963 0.8662 0.3044
vn 0.6670 0.7321 0.1384
vn 0.9798 -0.1982 -0.0261
vn 0.3980 -0.9174 -0.0027
vn 0.5026 -0.8645 0.0000
vn 0.9821 0.1856 0.0318
vn 0.9767 0.2058 0.0609
vn 0.2016 0.9456 0.2554
vn 0.0530 -0.6297 0.7750
vn 0.8045 -0.5937 0.0188
vn 0.0550 0.6468 0.7606
vn 0.9533 -0.2594 0.1548
vn 0.9651 -0.2617 0.0052
vn 0.2479 -0.2769 -0.9284
vn 0.2790 -0.4437 -0.8516
vn 0.2623 0.8300 0.4921
vn 0.4683 -0.8830 -0.0303
vn 0.3595 0.4928 0.7924
vn 0.9612 0.2614 0.0878
vn 0.3148 -0.6623 -0.6799
vn 0.9554 -0.2910 0.0507
vn 0.2530 0.9584 0.1319
vn -0.0479 -0.9986 -0.0237
vn -0.7281 -0.6855 -0.0032
vn -0.7894 -0.6120 0.0480
vn -0.9737 -0.2270 -0.0189
vn 0.0089 -0.9999 -0.0067
vn -0.3963 0.8662 0.3044
vn -0.6670 0.7321 0.1384
vn -0.9798 -0.1982 -0.0261
vn -0.3980 -0.9174 -0.0027
vn -0.5026 -0.8645 0.0000
vn -0.9821 0.1856 0.0318
vn -0.9767 0.2058 0.0609
vn -0.2016 0.9456 0.2554
vn -0.0530 -0.6297 0.7750
vn -0.8045 -0.5937 0.0188
vn -0.0550 0.6468 0.7606
vn -0.9533 -0.2594 0.1548
vn -0.9651 -0.2617 0.0052
vn -0.2479 -0.2769 -0.9284
vn -0.2790 -0.4437 -0.8516
vn -0.2623 0.8300 0.4921
vn -0.4683 -0.8830 -0.0303
vn -0.3595 0.4928 0.7924
vn -0.9612 0.2614 0.0878
vn -0.3148 -0.6623 -0.6799
vn -0.9554 -0.2910 0.0507
vn -0.2530 0.9584 0.1319
vn 0.0479 -0.9986 -0.0237
g Cabeza_Cube.003_Material.003
usemtl Material.003
s off
f 14/1/1 31/2/1 32/3/1 16/4/1
f 5/5/2 30/6/2 31/2/2 14/1/2
f 31/2/3 8/7/3 6/8/3 32/3/3
f 36/9/4 34/10/4 4/11/4 2/12/4
f 23/13/5 20/14/5 21/15/5 22/16/5
f 3/17/6 11/18/6 20/14/6 23/13/6
f 30/6/7 1/19/7 8/7/7 31/2/7
f 13/20/8 5/5/8 14/1/8 19/21/8
f 19/21/9 14/1/9 16/4/9 18/22/9
f 1/19/10 3/17/10 23/13/10 8/7/10
f 8/7/11 23/13/11 22/16/11 6/8/11
f 35/23/12 33/24/12 10/25/12 12/26/12
f 9/27/13 24/28/13 27/29/13 17/30/13
f 16/4/14 32/3/14 24/28/14 9/27/14
f 4/11/15 12/31/15 10/32/15 2/12/15
f 34/10/16 35/33/16 12/31/16 4/11/16
f 32/3/17 6/8/17 25/34/17 24/28/17
f 28/35/18 29/36/18 1/19/18 30/6/18
f 13/20/19 28/35/19 30/6/19 5/5/19
f 22/16/20 21/15/20 15/37/20 7/38/20
f 18/22/21 16/4/21 9/27/21 17/30/21
f 25/39/22 7/40/22 15/41/22 26/42/22
f 6/8/23 22/16/23 7/38/23 25/34/23
f 29/36/24 11/18/24 3/17/24 1/19/24
f 24/28/25 25/34/25 35/33/25 34/10/25
f 25/39/26 26/42/26 33/24/26 35/23/26
f 27/29/27 24/28/27 34/10/27 36/9/27
f 46/43/28 47/44/28 54/45/28 53/46/28
f 40/47/29 46/43/29 53/46/29 52/48/29
f 53/46/30 54/45/30 41/49/30 43/50/30
f 36/51/31 2/52/31 39/53/31 55/54/31
f 49/55/32 48/56/32 21/57/32 20/58/32
f 38/59/33 49/55/33 20/58/33 11/60/33
f 52/48/34 53/46/34 43/50/34 37/61/34
f 13/62/35 19/63/35 46/43/35 40/47/35
f 19/63/36 18/64/36 47/44/36 46/43/36
f 37/61/37 43/50/37 49/55/37 38/59/37
f 43/50/38 41/49/38 48/56/38 49/55/38
f 56/65/39 45/66/39 10/25/39 33/24/39
f 44/67/40 17/68/40 27/69/40 50/70/40
f 47/44/41 44/67/41 50/70/41 54/45/41
f 39/53/42 2/52/42 10/71/42 45/72/42
f 55/54/43 39/53/43 45/72/43 56/73/43
f 54/45/44 50/70/44 51/74/44 41/49/44
f 28/75/45 52/48/45 37/61/45 29/76/45
f 13/62/46 40/47/46 52/48/46 28/75/46
f 48/56/47 42/77/47 15/78/47 21/57/47
f 18/64/48 17/68/48 44/67/48 47/44/48
f 51/79/49 26/42/49 15/41/49 42/80/49
f 41/49/50 51/74/50 42/77/50 48/56/50
f 29/76/51 37/61/51 38/59/51 11/60/51
f 50/70/52 55/54/52 56/73/52 51/74/52
f 51/79/53 56/65/53 33/24/53 26/42/53
f 27/69/54 36/51/54 55/54/54 50/70/54
