# Blender v3.1.2 OBJ File: 'Ptero.blend'
# www.blender.org
mtllib Cuerpo.mtl
o Cuerpo_Cube.001
v 0.000000 0.841341 0.186752
v 0.000000 2.397926 0.072071
v 0.000000 0.841341 -0.186752
v 0.000000 2.397926 -0.072071
v 0.362409 0.867492 0.186752
v 0.362409 0.867492 -0.186752
v 0.000000 1.277841 0.186752
v 0.000000 1.930928 0.186752
v 0.000000 1.930928 -0.186752
v 0.000000 1.277841 -0.186752
v 0.372308 1.310863 -0.186752
v 0.372308 1.310863 0.186752
v 0.000000 0.659458 0.097669
v 0.000000 0.659458 -0.097669
v 0.290589 0.690890 0.097669
v 0.290589 0.690890 -0.097669
v 0.300782 2.284064 0.028054
v 0.262104 2.328853 0.058971
v 0.300782 2.284064 -0.028054
v 0.262104 2.328853 -0.058971
v 0.332628 1.957847 -0.137258
v 0.321325 1.885075 -0.186752
v 0.332628 1.957847 0.137258
v 0.321325 1.885075 0.186752
v 0.203843 0.340409 -0.042422
v 0.203843 0.340409 0.023149
v 0.301388 0.350960 -0.042422
v 0.301388 0.350960 0.023149
v 0.317907 0.064985 -0.035454
v 0.245727 0.059641 -0.037591
v 0.245727 0.059641 0.002771
v 0.317907 0.064985 0.000634
v 0.286519 0.040790 0.081604
v 0.322354 0.023867 0.000634
v 0.322354 0.023867 -0.035454
v 0.250702 0.013653 -0.037591
v 0.250702 0.013653 0.002771
v 0.385538 0.053663 -0.072581
v 0.211480 0.039358 -0.045909
v -0.362409 0.867492 0.186752
v -0.362409 0.867492 -0.186752
v -0.372308 1.310863 -0.186752
v -0.372308 1.310863 0.186752
v -0.290589 0.690890 0.097669
v -0.290589 0.690890 -0.097669
v -0.300782 2.284064 0.028054
v -0.262104 2.328853 0.058971
v -0.300782 2.284064 -0.028054
v -0.262104 2.328853 -0.058971
v -0.332628 1.957847 -0.137258
v -0.321325 1.885075 -0.186752
v -0.332628 1.957847 0.137258
v -0.321325 1.885075 0.186752
v -0.203843 0.340409 -0.042422
v -0.203843 0.340409 0.023149
v -0.301388 0.350960 -0.042422
v -0.301388 0.350960 0.023149
v -0.317907 0.064985 -0.035454
v -0.245727 0.059641 -0.037591
v -0.245727 0.059641 0.002771
v -0.317907 0.064985 0.000634
v -0.286519 0.040790 0.081604
v -0.322354 0.023867 0.000634
v -0.322354 0.023867 -0.035454
v -0.250702 0.013653 -0.037591
v -0.250702 0.013653 0.002771
v -0.385538 0.053663 -0.072581
v -0.211480 0.039358 -0.045909
vt 0.433363 0.765257
vt 0.206817 0.765257
vt 0.206817 0.654900
vt 0.433363 0.637394
vt 0.088375 0.765257
vt 0.088375 0.674613
vt 0.226455 0.421849
vt 0.069994 0.387320
vt 0.056715 0.304983
vt 0.212699 0.304983
vt 0.595944 0.444432
vt 0.436027 0.446256
vt 0.452946 0.304983
vt 0.633805 0.304983
vt 0.612319 0.589149
vt 0.430301 0.594603
vt 0.585679 0.765258
vt 0.585679 0.640901
vt 0.192553 0.564831
vt 0.681735 0.456484
vt 0.734682 0.304983
vt 0.854038 0.473767
vt 0.832791 0.511406
vt 0.689448 0.541375
vt 0.653842 0.665289
vt 0.653842 0.765258
vt 0.034165 0.406051
vt 0.074453 0.407861
vt 0.057087 0.420141
vt 0.088375 0.654506
vt 0.206817 0.646394
vt 0.194758 0.428947
vt 0.168099 0.538015
vt 0.000145 0.304983
vt 0.775576 0.721384
vt 0.772237 0.662428
vt 0.876355 0.657581
vt 0.878511 0.686555
vt 0.825048 0.538142
vt 0.833382 0.304983
vt 0.877481 0.456131
vt 0.938854 0.570927
vt 0.953591 0.545992
vt 0.974613 0.575583
vt 0.932708 0.584341
vt 0.964372 0.533454
vt 0.050182 0.914631
vt 0.056800 0.931322
vt 0.022292 0.938398
vt 0.072142 0.932474
vt 0.066986 0.961080
vt 0.052581 0.958307
vt 0.075928 0.913313
vt 0.040800 0.970244
vt 0.884750 0.656183
vt 0.888035 0.680853
vt 0.951873 0.609820
vt 0.874381 0.631047
vt 0.075928 0.992473
vt 0.879108 0.694574
vt 0.978958 0.541502
vt 0.433363 0.893121
vt 0.206817 0.875614
vt 0.088375 0.855902
vt 0.226455 0.188116
vt 0.069994 0.222645
vt 0.595944 0.165533
vt 0.436027 0.163710
vt 0.612319 0.020816
vt 0.430301 0.015362
vt 0.585679 0.889614
vt 0.192552 0.045135
vt 0.681735 0.153481
vt 0.832791 0.098559
vt 0.854037 0.136198
vt 0.689448 0.068590
vt 0.653842 0.865226
vt 0.034165 0.203914
vt 0.057087 0.189824
vt 0.074453 0.202104
vt 0.088375 0.876009
vt 0.206817 0.884121
vt 0.194758 0.181019
vt 0.168099 0.071951
vt 0.775576 0.809131
vt 0.878203 0.846119
vt 0.876355 0.872934
vt 0.772237 0.868087
vt 0.825048 0.071823
vt 0.877481 0.153834
vt 0.938854 0.039038
vt 0.974613 0.034382
vt 0.953591 0.063973
vt 0.932708 0.025624
vt 0.964372 0.076511
vt 0.118258 0.997307
vt 0.090368 0.973539
vt 0.124876 0.980615
vt 0.140217 0.979464
vt 0.120657 0.953631
vt 0.135062 0.950858
vt 0.144004 0.998625
vt 0.108876 0.941693
vt 0.888035 0.849662
vt 0.884750 0.874333
vt 0.951873 0.000145
vt 0.874381 0.899469
vt 0.144004 0.919465
vt 0.879108 0.835941
vt 0.978958 0.068463
vn 0.0000 0.0000 -1.0000
vn 0.0730 0.2610 -0.9626
vn 0.0730 0.2610 0.9626
vn 0.0000 -0.0000 1.0000
vn 0.9998 -0.0223 0.0000
vn 0.9961 0.0884 0.0000
vn 0.0231 -0.2134 0.9767
vn 0.9263 -0.3767 0.0000
vn 0.0398 -0.4511 0.8916
vn 0.0398 -0.4511 -0.8916
vn 0.7569 0.6536 0.0000
vn 0.7736 0.2682 -0.5742
vn 0.7736 0.2682 0.5742
vn 0.9882 -0.1535 0.0000
vn 0.2548 0.9670 0.0000
vn 0.0144 -0.0193 -0.9997
vn 0.0173 -0.1599 -0.9870
vn 0.9995 0.0318 0.0000
vn -0.8427 -0.5384 0.0000
vn -0.0635 0.9627 0.2631
vn 0.0194 -0.0735 0.9971
vn 0.9983 0.0577 0.0000
vn -0.9891 -0.1475 0.0000
vn -0.8932 -0.0966 0.4391
vn 0.1411 -0.9900 0.0000
vn -0.5481 -0.8364 0.0000
vn 0.9174 0.0992 0.3853
vn 0.0294 0.0032 -0.9996
vn 0.1651 0.9863 0.0000
vn -0.4873 -0.0527 -0.8716
vn 0.7383 0.0799 0.6697
vn 0.4265 -0.9045 0.0000
vn 0.2225 0.0241 -0.9746
vn -0.5096 0.8604 0.0000
vn -0.7976 -0.0863 0.5970
vn 0.1438 -0.9540 0.2631
vn -0.0730 0.2610 -0.9626
vn -0.0730 0.2610 0.9626
vn -0.9998 -0.0223 0.0000
vn -0.9961 0.0884 0.0000
vn -0.0231 -0.2134 0.9767
vn -0.9263 -0.3767 0.0000
vn -0.0398 -0.4511 0.8916
vn -0.0398 -0.4511 -0.8916
vn -0.7569 0.6536 0.0000
vn -0.7736 0.2682 -0.5742
vn -0.7736 0.2682 0.5742
vn -0.9882 -0.1535 0.0000
vn -0.2548 0.9670 0.0000
vn -0.0144 -0.0193 -0.9997
vn -0.0173 -0.1599 -0.9870
vn -0.9995 0.0318 0.0000
vn 0.8427 -0.5384 0.0000
vn 0.0635 0.9627 0.2631
vn -0.0194 -0.0735 0.9971
vn -0.9983 0.0577 0.0000
vn 0.9891 -0.1475 0.0000
vn 0.8932 -0.0966 0.4391
vn -0.1411 -0.9900 0.0000
vn 0.5481 -0.8364 0.0000
vn -0.9174 0.0992 0.3853
vn -0.0294 0.0032 -0.9996
vn -0.1651 0.9863 0.0000
vn 0.4873 -0.0527 -0.8716
vn -0.7383 0.0799 0.6697
vn -0.4265 -0.9045 0.0000
vn -0.2225 0.0241 -0.9746
vn 0.5096 0.8604 0.0000
vn 0.7976 -0.0863 0.5970
vn -0.1438 -0.9540 0.2631
g Cuerpo_Cube.001_Material.004
usemtl Material.004
s off
f 10/1/1 9/2/1 22/3/1 11/4/1
f 9/2/2 4/5/2 20/6/2 22/3/2
f 24/7/3 18/8/3 2/9/3 8/10/3
f 5/11/4 12/12/4 7/13/4 1/14/4
f 6/15/5 11/16/5 12/12/5 5/11/5
f 12/12/4 24/7/4 8/10/4 7/13/4
f 3/17/1 10/1/1 11/4/1 6/18/1
f 11/16/6 22/19/6 24/7/6 12/12/6
f 15/20/7 13/21/7 26/22/7 28/23/7
f 6/15/8 5/11/8 15/20/8 16/24/8
f 5/11/9 1/14/9 13/21/9 15/20/9
f 3/17/10 6/18/10 16/25/10 14/26/10
f 20/27/11 18/8/11 17/28/11 19/29/11
f 19/30/12 21/31/12 22/3/12 20/6/12
f 18/8/13 24/7/13 23/32/13 17/28/13
f 21/33/14 23/32/14 24/7/14 22/19/14
f 20/27/15 4/34/15 2/9/15 18/8/15
f 25/35/16 27/36/16 29/37/16 30/38/16
f 14/26/17 16/25/17 27/36/17 25/35/17
f 16/24/18 15/20/18 28/23/18 27/39/18
f 13/21/19 14/40/19 25/41/19 26/22/19
f 32/42/20 31/43/20 33/44/20
f 28/23/21 26/22/21 31/43/21 32/42/21
f 27/39/22 28/23/22 32/42/22 29/45/22
f 26/22/23 25/41/23 30/46/23 31/43/23
f 31/47/24 37/48/24 33/49/24
f 36/50/25 35/51/25 34/52/25 37/48/25
f 36/50/26 37/48/26 39/53/26
f 34/52/27 32/54/27 33/49/27
f 30/38/28 29/37/28 35/55/28 36/56/28
f 29/45/29 32/42/29 38/57/29
f 35/55/30 29/37/30 38/58/30
f 32/54/31 34/52/31 38/59/31
f 34/52/32 35/51/32 38/59/32
f 30/38/33 36/56/33 39/60/33
f 31/43/34 30/46/34 39/61/34
f 37/48/35 31/47/35 39/53/35
f 37/48/36 34/52/36 33/49/36
f 10/1/1 42/62/1 51/63/1 9/2/1
f 9/2/37 51/63/37 49/64/37 4/5/37
f 53/65/38 8/10/38 2/9/38 47/66/38
f 40/67/4 1/14/4 7/13/4 43/68/4
f 41/69/39 40/67/39 43/68/39 42/70/39
f 43/68/4 7/13/4 8/10/4 53/65/4
f 3/17/1 41/71/1 42/62/1 10/1/1
f 42/70/40 43/68/40 53/65/40 51/72/40
f 44/73/41 57/74/41 55/75/41 13/21/41
f 41/69/42 45/76/42 44/73/42 40/67/42
f 40/67/43 44/73/43 13/21/43 1/14/43
f 3/17/44 14/26/44 45/77/44 41/71/44
f 49/78/45 48/79/45 46/80/45 47/66/45
f 48/81/46 49/64/46 51/63/46 50/82/46
f 47/66/47 46/80/47 52/83/47 53/65/47
f 50/84/48 51/72/48 53/65/48 52/83/48
f 49/78/49 47/66/49 2/9/49 4/34/49
f 54/85/50 59/86/50 58/87/50 56/88/50
f 14/26/51 54/85/51 56/88/51 45/77/51
f 45/76/52 56/89/52 57/74/52 44/73/52
f 13/21/53 55/75/53 54/90/53 14/40/53
f 61/91/54 62/92/54 60/93/54
f 57/74/55 61/91/55 60/93/55 55/75/55
f 56/89/56 58/94/56 61/91/56 57/74/56
f 55/75/57 60/93/57 59/95/57 54/90/57
f 60/96/58 62/97/58 66/98/58
f 65/99/59 66/98/59 63/100/59 64/101/59
f 65/99/60 68/102/60 66/98/60
f 63/100/61 62/97/61 61/103/61
f 59/86/62 65/104/62 64/105/62 58/87/62
f 58/94/63 67/106/63 61/91/63
f 64/105/64 67/107/64 58/87/64
f 61/103/65 67/108/65 63/100/65
f 63/100/66 67/108/66 64/101/66
f 59/86/67 68/109/67 65/104/67
f 60/93/68 68/110/68 59/95/68
f 66/98/69 68/102/69 60/96/69
f 66/98/70 62/97/70 63/100/70
